<svg xmlns="http://www.w3.org/2000/svg" viewBox="0 0 400 400" width="400" height="400">
  <!-- background -->
  <rect width="400" height="400" fill="#1b2031"/>

  <!-- land masses (Natural Earth 110m) -->
  <path d="M133.8,377.9L133.5,379.0L133.2,380.0L130.8,379.7L128.3,379.8L127.0,379.1L127.0,379.0L126.3,378.3L128.8,378.4L131.2,378.7L132.1,377.7L132.7,377.0L133.8,377.9Z M23.1,376.7L21.0,377.0L19.5,376.2L18.9,375.4L18.8,375.3L18.1,374.7L18.8,373.8L20.8,374.2L21.9,374.9L22.8,375.7L23.1,376.7Z M149.8,373.4L151.2,374.4L151.7,375.7L151.8,376.7L151.9,377.8L150.1,378.5L148.3,379.1L146.2,379.6L143.9,380.1L141.3,379.9L139.8,379.2L140.0,378.3L142.4,377.7L143.3,376.9L144.0,376.0L144.5,375.1L145.2,374.4L145.9,373.4L146.5,373.4L148.2,373.0L149.8,373.4Z M65.3,363.3L66.8,363.7L68.1,363.3L67.5,364.1L66.4,364.6L64.9,364.5L63.8,363.7L64.0,362.9L65.3,363.3Z M60.5,363.3L62.2,364.2L61.5,364.1L60.1,363.9L58.6,363.2L59.4,362.8L60.5,363.3Z M90.0,359.9L91.2,360.2L92.5,359.9L93.1,361.2L92.2,361.0L90.9,361.1L89.5,361.0L88.0,361.1L86.9,360.7L86.3,359.8L87.0,359.4L88.4,359.7L90.0,359.9Z M123.9,357.7L124.1,358.7L123.9,359.6L123.6,360.4L122.3,360.7L121.0,361.1L119.6,361.1L120.1,360.2L118.8,360.5L117.6,360.8L116.7,360.2L116.7,359.2L117.9,358.4L118.6,358.1L119.9,358.2L120.2,357.1L120.3,356.2L120.3,354.5L120.9,353.4L121.9,353.1L122.5,353.9L122.8,354.7L123.3,355.7L123.6,356.7L123.9,357.7Z M0.0,388.3L0.1,388.3L1.0,387.0L3.0,387.7L3.2,387.6L3.5,387.4L3.9,387.2L4.2,387.0L4.4,386.9L4.5,386.9L4.6,386.9L6.2,387.9L7.6,386.9L7.9,386.8L11.2,386.4L12.2,386.9L12.7,387.2L14.4,387.9L17.6,388.5L20.1,389.2L24.4,389.7L27.6,389.1L32.3,389.5L35.0,390.2L37.9,389.6L41.0,389.0L41.2,387.9L36.9,387.8L33.3,387.3L32.3,386.5L29.3,386.0L29.5,385.0L30.0,384.1L30.4,383.2L30.2,382.3L28.3,381.7L27.5,380.9L25.7,380.2L28.4,380.4L31.0,380.0L32.6,380.7L34.6,380.1L36.4,379.3L37.3,378.5L36.9,377.6L35.5,377.0L33.9,376.4L31.6,376.2L29.6,375.9L27.4,375.7L26.7,374.9L25.3,374.2L24.4,373.4L24.0,370.9L24.6,371.1L25.6,371.8L27.4,371.6L29.2,371.3L30.1,372.2L31.9,372.0L33.3,371.5L34.7,370.9L36.0,370.2L37.7,370.0L37.6,369.1L37.2,368.3L37.6,367.5L39.0,367.1L39.6,367.9L41.3,367.4L42.6,366.9L44.2,366.8L45.7,366.6L47.2,366.1L48.4,365.6L49.8,365.1L50.6,365.2L51.4,365.4L53.0,365.1L54.5,365.5L56.1,365.5L57.5,365.2L59.0,365.4L60.7,365.6L62.2,365.5L63.8,365.6L65.5,365.6L67.0,365.5L68.1,364.9L69.5,364.5L70.9,365.0L72.2,364.6L73.4,363.8L74.1,364.5L74.5,365.3L75.2,366.0L76.4,365.4L77.7,366.2L79.2,366.5L80.5,367.1L82.1,366.9L83.5,366.6L85.1,366.6L86.6,366.9L88.2,367.3L88.8,366.4L88.0,365.6L87.5,364.9L86.1,364.7L85.4,363.9L85.2,363.0L84.8,361.4L85.6,361.7L87.1,361.8L88.5,361.7L89.8,362.0L91.0,362.7L91.5,363.5L93.0,363.6L94.4,363.3L95.9,362.9L97.3,362.6L98.4,363.1L99.9,362.9L100.9,361.2L101.8,362.2L103.0,362.6L104.4,362.4L105.3,363.3L106.8,363.4L108.1,363.6L109.5,364.1L110.3,363.3L110.8,362.5L111.9,363.4L113.4,363.2L114.5,363.6L115.3,364.4L116.8,364.2L117.9,363.7L119.1,363.1L120.4,362.8L122.0,362.5L123.4,362.2L124.5,361.8L125.1,361.1L125.4,360.1L125.3,359.2L124.9,358.3L124.5,357.5L124.2,356.6L123.9,355.8L123.8,354.9L123.9,354.1L124.5,353.2L124.9,352.3L125.1,351.4L124.9,350.5L124.7,349.6L125.3,348.6L125.9,348.0L126.6,347.1L127.4,346.4L128.3,345.8L128.7,344.8L129.3,344.2L130.0,343.6L131.1,343.5L131.8,342.8L132.5,342.4L133.5,342.1L134.3,341.6L134.9,340.9L135.8,340.6L136.4,341.2L136.0,341.9L134.9,342.6L134.4,343.0L133.6,342.7L132.7,342.9L131.9,343.4L131.1,344.0L130.5,344.7L130.4,345.5L130.5,346.3L131.0,347.1L130.2,347.6L129.2,347.8L128.6,348.5L127.9,349.2L127.2,350.2L127.0,351.0L127.4,351.9L128.0,352.6L128.9,353.1L129.8,353.8L130.2,354.7L130.5,355.5L130.8,356.4L131.3,357.1L131.7,358.0L131.8,360.0L132.1,360.8L132.2,361.7L132.6,362.6L132.4,363.8L131.8,364.7L131.2,365.4L129.7,365.7L129.2,366.5L128.5,367.2L126.8,368.1L125.3,368.4L123.9,368.9L122.4,369.4L121.6,370.3L119.8,370.4L117.8,370.3L116.0,370.5L114.2,370.5L114.5,371.3L116.2,371.7L117.5,372.3L118.2,373.1L116.9,373.8L115.0,373.6L113.4,374.2L113.3,375.1L113.3,376.0L114.6,376.7L114.9,377.5L116.3,378.4L118.6,378.7L120.6,379.3L122.2,380.0L124.2,380.7L127.0,381.1L129.7,381.7L131.6,382.3L133.7,383.1L134.8,384.1L135.3,384.9L136.7,384.1L138.5,383.5L140.4,382.8L142.7,382.2L144.7,381.6L147.5,381.6L150.2,381.9L152.4,382.4L153.2,381.4L154.7,380.8L157.5,380.7L159.7,380.3L161.8,379.8L164.1,379.5L166.6,379.1L168.3,378.5L167.5,377.7L167.0,377.0L167.0,376.1L164.9,376.2L162.6,376.6L160.4,376.6L160.1,375.7L160.2,374.1L160.7,373.6L162.3,373.1L164.2,372.6L165.6,371.9L166.9,371.3L167.9,370.4L169.4,370.0L170.9,369.7L171.7,369.5L173.4,369.4L175.0,369.1L176.4,368.7L177.8,368.2L179.0,367.6L180.5,366.9L181.5,366.2L182.6,365.6L182.9,364.7L181.7,364.2L182.1,363.2L182.8,362.5L184.0,362.1L185.2,361.6L186.3,360.9L187.2,360.0L187.8,359.0L188.6,358.4L189.9,358.5L190.4,359.2L191.8,359.3L191.8,358.5L192.4,357.6L193.6,357.8L193.8,358.7L195.2,358.8L196.6,358.4L198.0,358.2L199.3,358.3L199.7,359.2L201.0,358.5L202.1,358.1L203.4,357.8L204.6,357.5L205.7,356.9L207.0,356.6L207.9,356.1L208.6,355.3L209.4,355.9L210.6,355.6L211.4,356.6L212.0,357.4L213.3,357.0L213.8,356.1L214.9,355.5L216.4,355.6L216.8,356.5L217.7,355.6L218.9,355.4L220.2,355.3L221.4,355.3L222.6,355.6L223.8,355.7L224.4,356.5L225.1,357.1L226.3,356.7L227.6,356.6L228.9,356.6L230.1,356.6L231.2,356.3L232.4,356.0L233.4,355.4L234.4,355.0L235.5,354.8L236.4,354.2L237.0,353.0L237.6,352.2L238.8,352.6L239.2,353.4L240.2,353.9L241.3,353.7L242.1,354.5L242.9,355.1L244.1,354.5L244.5,353.6L245.5,353.2L246.6,352.4L247.7,352.1L249.0,351.7L249.9,351.2L250.8,350.7L251.7,350.2L252.7,350.5L253.7,349.7L254.4,349.1L255.5,349.1L256.4,348.6L256.6,347.8L257.5,347.2L258.5,346.8L259.6,346.4L260.6,346.3L261.6,346.4L262.6,346.6L263.5,347.2L263.6,348.2L264.6,348.9L265.3,349.5L266.6,349.8L267.3,350.4L268.3,351.0L269.3,351.1L270.2,350.7L271.2,349.8L272.2,350.3L273.3,350.5L274.3,350.8L275.4,351.0L276.5,351.0L277.5,353.3L277.4,353.8L277.3,354.8L276.2,355.4L275.3,356.2L275.5,357.1L276.7,357.1L276.6,357.9L276.0,358.8L275.5,359.7L276.3,360.4L277.6,360.6L278.9,360.2L279.5,359.3L279.9,358.5L280.5,357.8L281.2,357.1L281.5,356.4L282.1,355.3L282.8,355.1L284.0,355.0L285.1,354.7L286.3,354.4L286.8,353.5L287.1,352.7L287.9,351.8L289.0,351.3L289.9,350.8L290.5,350.1L291.2,349.7L292.0,349.4L293.1,349.6L294.1,349.4L295.2,349.1L296.4,349.2L297.2,348.6L297.8,347.1L298.2,347.7L298.7,348.8L299.6,349.2L300.7,349.4L301.8,349.1L302.9,349.3L303.9,349.4L304.6,349.1L305.6,349.3L306.4,349.7L307.4,349.4L308.6,349.4L309.6,349.1L310.8,349.4L311.5,348.7L312.1,348.0L312.9,347.3L314.3,345.7L315.0,346.0L315.8,346.6L316.6,347.4L318.0,348.7L319.1,348.8L320.1,348.8L321.3,348.5L322.5,348.2L323.4,347.6L324.2,347.0L325.4,346.9L326.2,346.4L327.1,346.8L327.7,347.5L328.4,348.2L329.7,348.1L330.4,348.7L331.8,349.3L333.1,349.5L334.3,349.3L335.2,348.6L335.9,347.9L336.9,347.7L337.9,348.0L339.1,348.3L340.1,347.9L341.1,347.9L342.1,348.1L343.1,348.4L344.1,348.0L345.3,347.6L346.4,347.5L347.7,347.5L348.7,347.3L349.7,347.1L350.0,346.0L350.1,345.1L350.8,345.7L351.0,346.7L351.3,347.7L351.8,348.4L352.7,348.8L354.0,348.7L355.5,348.6L356.5,348.5L357.9,348.5L359.0,348.4L360.4,348.5L361.7,348.7L362.4,349.4L362.2,350.2L362.9,350.9L364.1,351.4L365.4,352.0L366.8,352.4L368.3,352.7L369.4,353.1L370.7,353.1L371.4,352.4L372.4,353.0L373.3,353.7L374.2,354.2L375.6,354.4L376.9,354.7L377.4,355.5L378.7,356.1L379.5,356.8L380.8,357.2L382.0,357.1L383.2,357.3L384.6,357.2L385.9,357.4L387.1,357.7L388.3,358.2L389.4,358.7L390.2,359.3L390.1,360.2L389.5,361.0L389.0,362.0L388.6,362.8L388.1,363.7L386.6,364.0L386.0,364.8L384.5,365.3L384.0,366.2L383.3,367.0L382.5,367.7L382.0,368.6L381.7,369.4L381.6,370.4L381.7,371.3L382.3,372.1L382.5,373.0L383.0,373.7L385.1,374.0L385.6,375.0L383.5,375.4L381.9,375.8L379.7,375.9L378.8,377.2L378.6,378.2L378.1,379.1L377.5,379.9L379.0,380.6L379.6,381.5L380.5,382.4L381.9,383.1L383.4,383.8L385.1,384.5L387.7,385.2L388.2,386.3L391.4,386.8L391.6,386.9L392.5,387.6L395.5,387.0L398.1,387.7L0.0,388.3Z M124.7,319.7L126.2,321.0L127.7,321.6L127.2,322.7L126.2,322.8L125.6,322.0L125.2,322.9L124.3,323.6L123.1,323.3L122.3,322.7L121.1,322.3L119.7,321.1L118.6,319.9L117.0,317.4L118.0,317.9L119.5,319.4L121.0,320.2L121.6,319.1L121.9,317.6L122.9,316.7L123.7,317.0L124.2,318.0L124.7,319.7Z M134.9,313.6L135.8,314.6L135.5,315.3L134.0,316.0L133.5,315.2L132.6,316.2L132.0,315.2L133.3,313.9L134.3,314.4L134.9,313.6Z M278.1,310.5L276.4,310.6L276.4,309.4L276.5,308.5L276.6,308.1L277.3,308.8L278.4,309.0L278.4,309.5L278.1,310.5Z M361.6,290.6L362.6,291.4L363.2,291.1L364.1,290.7L364.8,290.8L364.8,293.5L364.5,294.2L364.3,296.0L364.0,295.4L363.2,297.0L363.0,296.8L362.3,296.8L361.6,294.9L361.4,293.4L360.8,291.5L360.8,290.5L361.6,290.6Z M392.2,290.9L392.5,291.8L393.3,290.9L393.6,291.9L393.6,292.8L393.2,293.9L392.5,295.5L391.9,296.4L392.3,297.5L391.5,297.5L390.5,298.3L390.2,299.8L389.6,302.0L388.7,303.0L388.1,303.6L387.1,303.6L386.4,302.9L385.2,302.7L385.0,301.9L385.6,300.2L387.0,298.1L387.7,297.6L388.5,296.8L389.5,295.6L390.1,294.5L390.6,292.8L391.1,292.3L391.2,291.0L392.0,290.0L392.2,290.9Z M394.0,280.3L394.8,282.7L394.8,281.2L395.3,281.8L395.5,283.5L396.4,284.2L397.2,284.4L397.8,283.5L398.4,283.8L398.1,285.7L397.7,287.0L396.9,287.0L396.6,287.7L396.7,288.6L396.5,289.0L396.1,290.2L395.6,291.8L394.7,292.6L394.5,292.1L394.1,291.7L394.7,289.9L394.3,288.7L393.1,287.8L393.2,287.0L394.0,286.2L394.2,284.5L394.1,283.1L393.7,281.6L393.7,281.2L393.2,280.3L392.3,278.3L391.8,276.7L392.2,276.6L392.8,277.8L393.7,278.4L394.0,280.3Z M385.7,249.2L385.3,249.8L384.7,249.2L383.9,248.2L383.1,247.0L382.4,245.4L382.3,244.7L382.7,244.7L383.4,245.5L383.8,246.2L384.2,246.8L385.1,248.2L385.7,249.2Z M398.2,238.5L398.6,239.2L398.4,240.3L397.7,240.6L397.1,240.4L397.0,239.4L397.4,238.6L397.9,238.9L398.2,238.5Z M0.0,236.8L399.3,237.3L398.6,237.8L398.4,237.0L399.0,236.5L399.3,236.4L0.0,235.7M0.0,235.7L0.2,235.6L0.1,236.7L0.0,236.8Z M386.5,236.6L386.1,236.9L385.8,235.9L385.8,235.3L386.5,236.6Z M385.7,233.2L385.9,235.0L385.6,234.7L385.3,234.8L385.2,234.2L385.1,232.5L385.7,233.2Z M255.6,230.1L255.8,232.8L256.1,233.8L256.0,234.9L255.8,235.6L255.4,234.3L255.2,234.9L255.4,236.6L255.3,237.5L255.0,238.0L254.9,239.9L254.5,242.5L253.9,245.5L253.3,249.8L252.8,252.8L252.3,255.4L251.4,256.0L250.5,256.9L249.8,256.3L248.9,255.5L248.6,254.4L248.6,252.4L248.2,250.6L248.1,249.0L248.3,247.4L248.8,247.0L248.8,246.3L249.3,244.6L249.4,243.2L249.1,242.1L248.9,240.7L248.8,238.7L249.2,237.4L249.4,236.0L249.9,236.0L250.6,235.5L251.0,235.1L251.5,235.1L252.1,233.8L253.0,232.4L253.3,231.3L253.2,230.4L253.7,230.6L254.3,229.1L254.3,227.7L254.7,226.8L255.0,227.7L255.3,228.7L255.6,230.1Z M359.5,230.6L359.9,232.3L360.6,231.5L361.0,232.4L361.5,233.3L361.4,234.3L361.7,236.2L361.8,237.3L362.1,237.6L362.4,239.5L362.3,240.6L362.7,242.1L363.9,243.3L364.6,244.3L365.4,245.3L365.2,245.9L365.9,247.2L366.3,249.7L366.8,249.2L367.2,250.1L367.5,249.8L367.7,252.1L368.5,253.5L369.0,254.4L369.8,256.2L370.2,257.9L370.2,259.2L370.1,260.6L370.6,262.5L370.6,264.4L370.4,265.5L370.1,267.4L370.1,268.7L369.9,270.3L369.4,272.3L368.6,273.4L368.2,275.1L367.8,276.2L367.5,278.2L367.0,279.3L366.8,280.9L366.6,282.5L366.7,283.2L366.0,283.9L364.8,284.0L363.8,284.9L363.2,285.8L362.6,286.7L361.7,285.8L361.0,285.4L361.1,284.2L360.5,284.6L359.6,286.2L358.6,285.6L358.0,285.3L357.3,285.1L356.3,284.5L355.5,283.1L355.3,281.4L355.1,280.3L354.5,279.4L353.5,279.1L353.8,278.1L353.6,276.4L353.0,277.9L352.0,278.4L352.6,277.1L352.8,275.8L353.2,274.8L353.1,273.1L352.2,275.0L351.5,275.8L351.1,277.5L350.2,276.6L350.3,275.4L349.6,273.8L349.0,273.0L349.2,272.5L347.8,271.1L347.0,271.1L345.9,270.0L343.9,270.2L342.5,271.0L341.2,271.7L340.2,271.6L339.0,272.7L338.0,273.2L337.8,274.4L337.4,275.3L336.5,275.4L335.8,275.6L334.8,275.2L334.0,275.4L333.2,275.5L332.6,276.7L332.2,276.6L331.7,277.2L331.1,277.9L330.3,277.8L329.6,277.8L328.4,276.4L327.8,276.0L327.8,274.7L328.4,274.4L328.6,273.9L328.5,273.1L328.7,271.6L328.5,270.3L328.0,268.0L327.8,266.7L327.8,265.5L327.4,264.0L327.4,263.4L326.9,262.5L326.7,260.7L326.1,259.0L325.9,258.0L326.4,259.0L326.0,256.9L326.6,257.6L326.9,258.4L326.9,257.3L326.4,255.6L326.3,254.9L326.0,254.2L326.1,252.9L326.3,252.4L326.5,251.2L326.4,249.9L326.8,248.3L326.9,250.0L327.4,248.5L328.3,247.8L328.8,246.8L329.7,246.0L330.2,245.8L330.5,246.1L331.4,245.3L332.0,245.0L332.2,244.5L332.5,244.3L333.1,244.4L334.3,243.7L334.9,242.8L335.2,241.6L335.8,240.4L335.9,239.6L335.9,238.3L336.7,236.5L337.1,238.4L337.6,237.9L337.2,236.9L337.6,235.8L338.1,236.3L338.2,234.6L338.8,233.5L339.1,232.6L339.6,232.2L339.7,231.6L340.1,231.9L340.2,231.3L340.6,231.0L341.2,230.7L342.0,231.7L342.6,233.0L343.3,233.1L344.0,233.3L343.8,232.0L344.3,230.3L344.8,229.7L344.6,229.1L345.1,227.9L345.8,227.1L346.4,227.3L347.3,226.9L347.3,225.8L346.5,225.1L347.1,224.7L347.8,225.3L348.4,226.2L349.3,226.8L349.6,226.5L350.3,227.2L351.0,226.6L351.4,226.8L351.7,226.3L352.2,227.4L351.9,228.6L351.5,229.5L351.1,229.6L351.2,230.5L350.9,231.6L350.5,232.7L350.6,233.3L351.4,234.6L352.3,235.3L352.9,236.0L353.7,237.4L354.0,237.3L354.6,237.9L354.7,238.6L355.8,239.4L356.5,238.6L356.7,237.4L357.0,236.4L357.1,235.2L357.4,233.4L357.3,232.4L357.4,231.7L357.2,230.4L357.4,228.8L357.6,228.3L357.4,227.6L357.7,226.4L357.9,225.2L357.9,224.5L358.4,223.7L358.7,224.8L358.7,226.2L359.0,226.5L359.1,227.4L359.5,228.5L359.6,229.8L359.5,230.6Z M380.1,223.3L380.4,224.1L379.7,224.0L379.2,222.7L379.9,223.2L380.1,223.3Z M334.1,222.8L333.7,222.8L332.2,221.2L333.2,220.8L333.8,221.5L334.2,222.2L334.1,222.8Z M378.7,221.9L378.3,222.0L377.6,221.8L377.4,221.4L377.4,220.5L378.2,220.9L378.5,221.4L378.7,221.9Z M379.6,221.3L379.5,221.7L378.7,219.8L378.4,218.5L378.8,218.5L379.2,220.3L379.6,221.3Z M338.3,222.5L337.3,223.0L337.2,222.8L337.3,222.0L337.8,220.6L338.9,219.8L339.0,219.2L339.9,218.7L340.7,218.7L341.1,218.4L341.5,218.7L341.1,219.3L339.9,220.2L339.0,220.9L338.3,222.5Z M331.0,218.0L331.4,218.6L332.1,218.4L332.4,219.3L331.1,219.8L330.3,220.1L329.7,220.1L330.1,218.8L330.7,218.8L331.0,218.0Z M336.6,218.0L336.4,219.2L334.7,219.9L333.2,219.6L333.2,218.8L334.1,218.3L334.8,219.0L335.6,218.8L336.6,218.0Z M377.6,218.5L377.7,219.0L376.8,218.0L376.2,217.2L375.8,216.5L376.0,216.3L376.5,216.8L377.4,217.8L377.6,218.5Z M375.0,216.3L374.8,216.5L374.3,216.0L373.9,215.0L373.9,214.7L374.6,215.6L375.0,216.3Z M320.7,215.1L322.8,215.3L323.1,214.4L325.1,215.4L325.5,216.9L327.2,217.3L328.6,218.6L327.3,219.4L326.1,218.6L325.1,218.6L323.9,218.4L322.9,218.0L321.6,217.2L320.8,217.0L320.3,217.3L318.3,216.3L318.1,215.4L317.1,215.2L317.8,213.1L319.2,213.2L320.1,214.1L320.5,214.3L320.7,215.1Z M349.7,213.8L349.1,215.3L349.0,213.6L349.2,212.9L349.4,212.1L349.7,212.7L349.7,213.8Z M373.2,215.2L372.9,215.4L372.4,214.5L371.9,213.1L371.7,211.4L371.8,211.2L372.0,211.9L372.3,212.4L372.8,213.8L373.4,214.5L373.2,215.2Z M368.9,212.2L368.3,212.4L368.1,213.0L367.5,213.5L366.9,214.0L366.3,214.0L365.4,213.4L364.8,212.8L364.9,212.1L365.9,212.4L366.5,212.2L366.7,211.2L366.8,211.1L366.9,212.3L367.6,212.1L367.9,211.4L368.5,210.6L368.4,209.3L369.0,209.2L369.3,209.6L369.2,210.8L368.9,212.2Z M341.4,207.7L341.0,208.4L340.2,208.0L340.0,207.1L341.1,207.0L341.4,207.7Z M345.0,206.9L345.4,208.6L344.4,207.7L343.5,207.5L342.9,207.6L342.1,207.5L342.4,206.3L343.7,206.2L345.0,206.9Z M370.2,210.0L369.8,210.6L369.6,209.3L369.3,208.4L368.8,207.7L368.2,206.7L367.4,206.1L367.7,205.6L368.3,206.2L368.7,206.7L369.2,207.2L369.6,208.1L370.0,208.8L370.2,210.0Z M349.0,202.6L349.4,206.2L350.5,207.5L351.4,205.1L352.7,203.8L353.7,203.8L354.7,204.6L355.5,205.4L356.7,205.8L358.6,207.3L360.6,208.6L361.4,209.7L362.0,210.8L362.2,212.1L364.1,213.5L364.3,214.7L363.3,214.9L363.5,216.4L364.5,217.9L365.3,220.2L365.9,220.2L365.9,221.1L366.7,221.5L366.4,221.9L367.6,222.9L367.4,223.5L366.7,223.7L366.4,223.1L365.5,222.8L364.3,222.5L363.5,221.1L362.9,219.9L362.3,217.9L360.8,217.0L359.9,217.6L359.2,218.3L359.3,220.0L358.5,220.7L357.9,220.4L356.7,220.3L355.7,218.4L354.6,218.0L354.3,218.6L352.9,218.7L353.4,216.9L354.1,216.3L353.8,213.9L353.3,212.0L351.1,210.1L350.2,209.9L348.5,207.9L348.2,208.9L347.8,209.1L347.5,208.3L347.5,207.4L346.7,206.3L347.9,205.5L348.6,205.5L348.6,204.9L346.9,204.9L346.5,203.6L345.5,203.2L345.0,202.1L346.5,201.5L347.1,200.8L348.9,201.7L349.0,202.6Z M339.2,196.8L338.3,199.1L337.4,199.5L336.4,199.0L334.5,199.2L333.5,199.5L333.4,201.2L334.4,203.1L335.0,202.1L337.0,201.4L337.0,202.4L336.5,202.1L336.0,203.4L335.0,204.2L336.1,207.1L335.9,207.8L336.9,210.4L336.8,211.9L336.3,212.5L335.8,211.7L336.4,209.9L335.3,210.8L335.0,210.2L335.1,209.3L334.3,208.0L334.4,205.8L333.7,206.5L333.8,209.1L333.8,212.3L333.1,212.6L332.6,212.0L332.9,209.9L332.8,207.8L332.3,207.8L332.0,206.2L332.4,204.8L332.6,203.0L333.1,199.7L333.4,198.7L334.3,197.1L335.2,197.7L336.6,198.1L337.9,198.0L339.0,196.3L339.2,196.8Z M343.0,197.5L342.9,199.4L342.4,199.2L342.2,200.6L342.6,201.7L342.3,202.0L341.9,200.6L341.6,197.8L341.8,196.0L342.1,195.2L342.2,196.4L342.9,196.6L343.0,197.5Z M317.6,213.0L316.3,213.1L315.4,211.2L314.0,209.4L313.5,208.0L312.7,206.2L312.1,204.6L311.3,201.4L310.3,199.6L310.0,197.7L309.6,195.9L308.6,194.5L308.0,192.6L307.1,191.4L306.0,189.0L305.9,187.8L306.6,187.9L308.3,188.3L309.3,190.5L310.2,192.0L310.8,192.9L311.8,195.3L313.0,195.4L313.9,196.9L314.5,198.8L315.4,199.8L314.9,201.6L315.6,202.4L316.0,202.4L316.2,204.0L316.5,205.2L317.4,205.4L317.9,206.8L317.6,209.6L317.6,213.0Z M331.0,195.9L332.2,198.0L330.9,198.3L330.5,199.8L330.6,201.8L329.5,203.3L329.5,205.5L329.1,208.9L328.9,208.1L327.6,209.1L327.2,207.8L326.4,207.6L325.8,206.9L324.5,207.7L324.1,206.7L323.4,206.8L322.5,206.5L322.3,203.5L321.7,202.9L321.2,201.0L321.1,199.1L321.2,197.0L321.8,195.5L322.7,196.3L323.5,195.9L323.7,194.0L324.2,193.6L325.6,193.1L326.3,191.3L326.9,189.9L327.3,189.1L328.3,187.9L329.1,186.3L329.7,184.6L330.1,184.6L330.7,185.7L330.8,186.7L331.5,187.3L332.4,188.0L332.3,188.9L331.6,189.0L331.8,190.1L331.0,190.8L330.3,192.8L331.2,194.9L331.0,195.9Z M340.4,181.3L340.5,182.8L340.6,184.0L340.2,186.1L339.8,183.8L339.3,184.9L339.6,186.6L339.3,187.6L338.0,186.3L337.7,184.7L338.0,183.6L337.3,182.6L337.0,183.5L336.5,183.4L335.7,184.7L335.5,184.0L335.9,182.1L336.6,181.5L337.2,180.7L337.6,181.7L338.4,181.1L338.6,180.1L339.4,180.0L339.3,178.3L340.2,179.4L340.3,180.5L340.4,181.3Z M290.2,186.2L289.3,186.7L288.7,185.0L288.6,181.8L289.1,178.2L289.8,179.4L290.3,181.0L290.9,183.3L290.7,185.6L290.2,186.2Z M132.3,177.5L131.4,177.8L131.2,177.6L131.5,177.0L131.5,176.1L132.1,175.8L132.3,175.9L132.3,177.5Z M337.8,177.2L337.4,177.9L337.0,179.3L336.7,180.0L336.0,178.4L336.2,177.8L336.5,177.2L336.6,175.8L337.2,175.7L337.0,177.2L337.9,175.0L337.8,177.2Z M331.7,179.3L330.2,181.4L330.7,179.8L331.5,178.5L332.2,176.9L332.8,174.7L333.0,176.5L332.3,177.8L331.7,179.3Z M335.4,173.6L336.1,174.3L336.8,174.3L336.8,175.2L336.3,176.1L335.6,176.8L335.5,175.8L335.6,174.6L335.4,173.6Z M339.4,173.0L339.8,175.5L338.9,174.9L338.9,175.6L339.2,177.0L338.7,177.5L338.6,175.9L338.3,175.8L338.1,174.5L338.8,174.6L338.8,173.8L338.1,172.1L339.1,172.1L339.4,173.0Z M335.0,171.0L334.7,172.9L334.3,171.8L333.7,170.1L334.6,170.2L335.0,171.0Z M334.8,158.9L335.5,159.5L335.8,158.9L335.9,159.5L335.7,160.4L336.1,162.0L335.8,163.9L335.2,164.6L335.0,166.4L335.3,168.2L335.8,168.4L336.3,168.1L337.7,169.4L337.6,170.6L338.0,171.1L337.9,172.1L337.0,171.0L336.6,169.9L336.3,170.7L335.6,169.4L334.6,169.7L334.0,169.2L334.1,168.3L334.4,167.7L334.1,167.2L334.0,168.0L333.4,166.7L333.2,165.8L333.2,163.6L333.7,164.4L333.8,160.9L334.1,158.9L334.8,158.9Z M127.1,159.5L126.8,160.1L126.0,160.0L125.3,160.1L125.3,159.2L125.4,158.8L126.4,158.9L126.9,159.1L127.1,159.5Z M114.6,160.3L114.2,160.7L113.6,160.3L113.0,159.5L113.1,159.0L113.6,158.8L113.8,158.9L114.6,159.1L115.1,159.6L115.3,160.2L114.6,160.3Z M119.4,155.8L120.3,156.2L120.5,155.8L121.3,155.8L122.0,156.4L122.3,156.3L122.5,157.1L123.1,157.1L123.0,157.7L123.5,157.8L124.1,158.6L123.7,159.5L123.1,159.1L122.6,159.2L122.3,159.1L122.1,159.5L121.6,159.6L121.5,159.1L121.1,159.4L120.7,160.9L120.4,160.5L120.3,159.9L119.6,159.5L119.1,159.7L118.4,159.5L117.9,159.9L117.3,159.2L117.4,158.5L118.4,158.8L119.2,159.0L119.6,158.5L119.1,157.6L119.1,156.7L118.4,156.4L118.7,155.7L119.4,155.8Z M322.6,158.5L321.6,159.6L320.7,158.9L320.7,157.0L321.2,156.0L322.5,155.3L323.1,155.4L323.3,156.2L322.9,157.2L322.6,158.5Z M27.2,157.6L27.0,158.0L26.7,157.6L26.8,157.0L26.6,156.2L26.6,156.0L26.8,155.6L26.8,155.2L26.8,155.0L26.9,155.0L27.3,155.4L27.5,155.6L27.7,155.9L28.0,156.6L28.0,156.8L27.5,157.2L27.2,157.6Z M26.6,154.1L26.2,154.3L26.0,153.8L25.9,153.6L25.9,153.5L26.0,153.3L26.4,153.5L26.7,153.9L26.6,154.1Z M25.8,152.9L25.8,153.2L25.2,153.1L25.3,152.8L25.8,152.9Z M24.8,152.6L24.8,152.7L24.7,152.7L24.3,152.6L24.2,152.1L24.1,152.0L24.4,151.7L24.5,151.9L24.8,152.6Z M22.9,151.2L22.8,151.4L22.4,151.0L22.5,150.8L22.7,150.6L22.9,150.6L22.9,151.2Z M111.5,149.4L111.9,150.2L112.9,150.0L113.3,150.5L114.3,151.9L115.0,152.9L115.3,152.8L116.0,153.3L115.9,153.9L116.7,154.0L117.6,154.9L117.4,155.4L116.7,155.7L116.0,155.8L115.2,155.7L113.6,155.9L114.3,154.6L113.9,154.1L113.2,153.9L112.8,153.3L112.5,152.0L111.9,152.1L110.9,151.5L110.5,151.0L109.1,150.7L108.7,150.3L109.1,149.7L108.0,149.6L107.2,150.7L106.8,150.8L106.6,151.3L106.1,151.6L105.6,151.3L106.2,150.7L106.4,149.9L106.9,149.4L107.5,148.9L108.3,148.7L108.6,148.5L109.5,148.6L110.4,148.7L111.5,149.4Z M113.8,147.2L113.6,147.3L113.3,146.0L112.9,145.4L113.1,144.0L113.5,144.1L113.8,145.9L113.8,147.2Z M334.6,149.4L334.2,151.2L333.6,149.3L333.5,147.7L334.1,145.5L335.0,143.8L335.5,144.4L335.3,145.8L334.6,149.4Z M113.5,140.9L112.3,141.3L112.2,140.5L112.8,140.3L113.5,140.4L113.5,140.9Z M114.4,140.9L114.3,142.5L114.0,142.2L114.1,141.0L113.6,140.2L113.6,139.9L114.4,140.9Z M349.6,124.1L349.7,124.9L349.1,126.2L348.7,125.5L348.1,126.0L347.8,127.3L347.1,126.7L347.1,125.6L347.7,124.3L348.3,124.6L348.8,123.6L349.6,124.1Z M238.4,120.7L237.7,121.7L237.8,122.1L237.8,122.3L236.6,123.2L236.1,122.9L235.8,122.0L236.4,121.9L236.4,121.9L236.6,121.4L237.4,121.4L238.4,120.7Z M226.3,120.7L226.9,121.4L227.8,121.3L228.6,121.4L228.6,121.8L229.2,121.6L229.1,122.2L227.5,122.4L227.5,122.0L226.1,121.6L226.3,120.7Z M217.2,115.0L216.8,116.8L217.0,117.5L216.8,118.6L215.9,117.8L215.4,117.5L213.8,116.4L214.0,115.3L215.3,115.5L216.4,115.2L217.2,115.0Z M210.2,108.4L210.9,110.0L210.7,112.9L210.2,112.8L209.8,113.5L209.4,113.0L209.3,110.3L209.1,109.0L209.7,109.1L210.2,108.4Z M356.6,117.5L356.2,119.2L356.4,120.4L355.8,121.9L354.4,123.0L352.5,123.1L350.9,125.6L350.1,124.8L350.1,123.1L348.2,123.6L346.8,124.7L345.5,124.7L346.7,126.3L345.9,130.1L345.2,131.0L344.7,130.2L344.9,128.2L344.2,127.5L343.8,126.0L344.8,125.3L345.4,123.9L346.5,122.8L347.4,121.3L349.6,120.6L350.8,121.1L351.9,117.1L352.7,118.2L354.3,115.9L354.9,115.1L355.6,112.4L355.4,109.9L355.9,108.5L357.1,108.0L357.7,111.1L357.6,112.9L356.6,115.2L356.6,117.5Z M210.6,106.3L210.3,108.0L209.8,107.6L209.5,106.1L209.7,105.3L210.4,104.4L210.6,106.3Z M359.9,101.8L360.7,102.3L361.5,101.4L361.7,103.9L360.1,104.5L359.1,106.7L357.3,105.2L356.7,107.6L355.5,107.6L355.4,105.4L355.9,103.7L357.1,103.6L357.4,100.5L357.7,98.8L359.0,101.1L359.9,101.8Z M129.3,96.6L130.1,96.9L131.1,96.8L130.5,97.7L130.1,97.8L128.7,96.9L128.5,96.2L128.9,95.5L129.3,96.6Z M131.3,90.9L130.8,90.9L129.3,90.2L128.3,89.2L128.7,89.0L130.2,89.5L131.3,90.5L131.3,90.9Z M62.8,92.2L62.2,92.5L60.4,91.5L60.0,90.7L59.1,89.9L58.9,89.3L57.7,88.9L57.3,87.7L57.4,87.2L58.5,87.7L59.2,88.0L60.3,88.2L60.6,89.0L61.2,90.1L62.3,91.0L62.8,92.2Z M137.6,87.4L136.9,89.3L137.6,88.6L138.4,89.0L138.0,89.8L139.0,90.4L139.5,89.9L140.6,90.6L140.2,92.2L141.0,91.8L141.2,93.0L141.5,94.4L141.0,96.3L140.5,96.4L139.8,96.0L140.0,94.2L139.7,93.9L138.4,95.8L137.8,95.7L138.6,94.7L137.5,94.1L136.3,94.3L134.1,94.2L134.0,93.6L134.7,92.8L134.2,92.2L135.1,90.8L136.3,87.3L137.0,86.0L137.9,85.3L138.4,85.4L138.2,86.0L137.6,87.4Z M52.5,79.9L53.6,79.7L53.3,82.3L54.2,84.0L53.8,84.0L53.1,83.0L52.7,82.0L52.2,81.3L52.0,80.3L52.0,79.6L52.5,79.9Z M359.6,87.2L360.7,91.2L359.1,90.4L358.4,93.6L359.5,95.9L359.5,97.5L358.6,96.1L357.9,97.9L357.7,96.0L357.8,93.8L357.7,91.4L357.9,89.7L358.0,86.8L357.3,84.6L357.4,81.5L358.5,80.5L358.0,79.5L358.5,79.2L358.8,80.7L359.2,82.8L359.2,85.0L359.6,87.2Z M192.5,83.9L190.5,85.2L188.9,84.8L189.8,82.5L189.2,80.3L190.7,78.5L191.6,77.5L192.5,77.4L193.7,78.8L193.1,80.3L193.3,81.9L192.5,83.9Z M214.1,76.4L213.4,78.2L212.3,77.0L212.1,76.0L213.7,75.3L214.1,76.4Z M30.0,73.1L28.9,73.9L28.3,73.4L28.1,72.3L29.2,71.5L29.7,71.2L30.5,71.3L31.0,72.0L30.0,73.1Z M196.7,69.7L195.5,72.1L196.6,71.8L197.8,71.8L197.5,73.6L196.5,75.6L197.7,75.8L198.8,78.6L199.5,79.0L200.2,81.5L200.5,82.4L201.9,82.8L201.7,84.2L201.2,84.9L201.6,86.0L200.6,87.2L199.1,87.2L197.2,87.8L196.7,87.3L196.0,88.4L195.0,88.1L194.2,89.0L193.6,88.5L195.2,86.2L196.2,85.7L194.5,85.3L194.1,84.5L195.3,83.8L194.7,82.6L194.9,81.1L196.6,81.3L196.7,80.0L196.0,78.6L194.6,78.2L194.4,77.6L194.8,76.6L194.4,76.0L193.8,77.1L193.7,74.9L193.2,73.8L193.6,71.5L194.4,69.7L195.3,69.9L196.7,69.7Z M16.0,66.9L15.3,67.2L14.6,66.8L13.9,66.2L15.0,65.8L15.9,66.0L16.0,66.9Z M111.9,61.9L111.5,63.0L111.0,62.8L110.7,62.2L110.8,62.0L111.2,61.4L111.6,61.4L111.9,61.9Z M109.0,60.6L107.7,61.9L106.9,61.8L106.7,61.2L107.5,60.2L109.0,60.2L109.0,60.6Z M9.2,58.3L9.9,58.7L10.6,58.5L11.5,59.0L12.6,59.3L12.5,59.6L11.6,60.1L10.8,59.6L10.4,59.2L9.4,59.3L9.1,59.1L9.2,58.3Z M105.4,54.1L105.6,55.1L106.2,54.7L106.8,55.3L108.0,56.1L109.3,56.8L109.4,57.8L110.2,57.7L111.0,58.4L110.0,59.1L108.3,58.6L107.7,57.6L106.6,58.7L105.0,59.9L104.6,58.6L103.1,58.8L104.1,57.7L104.2,56.0L104.6,53.9L105.4,54.1Z M183.9,52.3L183.6,53.8L184.9,55.3L183.4,57.0L180.2,58.5L179.3,58.9L177.8,58.6L174.7,57.9L175.8,56.9L173.4,55.8L175.3,55.4L175.3,54.7L173.0,54.2L173.7,52.7L175.4,52.4L177.1,53.9L178.8,52.7L180.2,53.3L182.0,52.2L183.9,52.3Z M115.7,50.8L114.5,50.9L114.2,49.8L114.7,48.6L115.7,48.3L116.5,48.9L116.6,49.8L116.4,50.1L115.7,50.8Z M0.0,46.7L2.7,48.4L5.6,50.7L5.5,52.0L6.3,52.6L6.0,51.0L9.0,51.3L11.2,53.4L10.1,54.4L8.3,54.6L8.3,56.8L7.8,57.2L6.8,57.2L5.9,56.4L4.5,55.7L4.2,54.8L3.1,54.4L1.8,54.7L1.2,53.9L1.5,53.1L0.1,53.6L0.6,54.7L0.0,55.6M0.0,55.6L400.0,55.6L398.6,56.6L397.1,56.4L398.1,57.6L398.8,59.4L399.3,60.0L399.4,61.0L399.1,61.5L397.1,61.1L394.0,62.7L393.0,63.0L391.3,64.6L389.7,65.9L389.3,66.9L387.7,65.4L384.8,67.1L384.3,66.3L383.2,67.3L381.7,67.0L381.4,68.4L380.0,70.6L380.1,71.5L381.3,72.0L381.2,75.2L380.1,75.3L379.7,77.1L380.1,78.1L378.2,79.2L377.8,81.8L376.1,82.3L375.8,84.6L374.2,86.6L373.8,85.1L373.3,81.9L372.7,76.9L373.2,73.9L374.2,72.5L374.2,71.5L376.0,71.0L377.9,68.2L379.9,65.9L381.9,64.1L382.7,61.0L381.4,61.2L380.7,63.0L377.9,65.5L377.0,62.7L374.1,63.5L371.4,67.2L372.3,68.6L369.8,69.1L368.1,69.4L368.2,67.8L366.4,67.4L365.1,68.5L361.7,68.1L358.0,68.8L354.4,73.1L350.1,78.4L351.9,78.7L352.4,80.0L353.5,80.5L354.2,79.4L355.4,79.6L357.1,82.0L357.1,83.9L356.2,86.1L356.1,88.8L355.6,92.3L354.0,95.6L353.6,97.1L352.1,99.7L350.6,102.2L349.9,103.6L348.4,104.9L347.7,104.9L347.0,103.8L345.5,105.4L345.3,106.2L344.9,106.0L344.4,106.8L344.1,107.6L344.1,109.1L343.5,109.6L343.3,110.0L342.9,110.7L342.2,111.1L341.7,111.7L341.7,112.6L341.5,112.9L342.0,113.2L342.6,114.2L343.6,116.8L343.8,118.3L343.9,120.8L343.4,122.0L342.4,122.5L341.5,123.4L340.5,123.6L340.4,122.4L340.6,120.7L340.1,118.4L341.0,118.0L340.2,116.1L339.7,115.7L339.5,116.1L339.2,116.3L339.2,115.9L338.9,115.7L338.6,115.3L338.9,114.3L339.1,114.1L339.0,113.7L339.3,112.5L339.2,112.1L338.6,111.9L338.1,111.3L336.5,111.9L335.7,113.0L334.5,113.6L335.1,112.5L334.9,111.7L335.7,110.2L335.2,109.0L334.2,109.8L332.9,111.3L332.2,112.8L331.2,112.9L330.6,113.9L331.2,115.4L332.1,115.8L332.1,116.8L333.0,117.4L334.2,115.8L335.2,116.7L336.0,116.8L336.1,117.9L334.6,118.6L334.0,119.8L333.0,120.9L332.4,122.4L333.6,123.6L334.0,125.8L334.7,127.9L335.5,129.6L335.4,131.2L334.7,131.8L335.0,133.0L335.7,133.7L335.5,135.5L335.2,137.3L334.6,137.5L333.8,139.9L332.9,142.8L331.8,145.4L330.3,147.5L328.8,149.4L327.5,149.6L326.8,150.6L326.5,149.9L325.8,151.0L324.3,152.1L323.1,152.4L322.7,154.8L322.1,154.9L321.8,153.3L322.1,152.5L320.6,151.7L320.1,152.1L318.6,154.0L317.6,156.1L317.4,157.6L318.3,160.0L319.3,162.9L320.3,164.3L321.0,166.1L321.5,170.2L321.3,174.1L320.4,175.5L319.1,177.0L318.2,178.8L316.8,180.9L316.4,179.5L316.8,178.0L315.9,176.7L315.0,176.4L314.5,175.2L314.0,172.9L313.0,171.9L312.0,171.9L312.2,170.2L311.2,170.2L311.1,172.7L310.5,175.9L310.2,177.9L310.2,179.5L311.0,179.5L311.4,181.6L311.6,183.5L312.2,184.8L312.9,185.0L313.5,186.2L313.7,186.4L314.4,187.7L314.9,189.2L314.9,190.7L314.8,191.7L314.9,192.5L315.0,193.8L315.4,194.4L315.8,196.4L315.8,197.1L315.0,197.3L314.0,195.6L312.7,193.9L312.5,192.7L311.9,191.2L311.7,189.4L311.3,188.2L311.5,186.6L311.2,185.6L310.8,184.8L310.6,183.7L310.0,182.4L309.4,181.4L309.3,182.7L309.1,181.4L309.2,180.1L309.5,177.9L309.4,176.3L309.7,174.6L309.4,173.3L309.5,170.8L309.0,169.7L308.6,167.0L308.4,164.2L308.0,162.4L307.2,163.5L306.0,165.1L305.3,164.9L304.7,164.4L305.0,161.6L304.8,159.5L303.9,157.0L304.1,156.2L303.4,155.9L302.6,154.1L302.3,152.9L302.3,151.8L302.0,150.7L301.6,149.4L300.6,149.3L300.7,150.2L300.3,151.5L299.8,151.0L299.7,151.4L299.4,151.2L298.9,151.0L298.8,151.8L298.0,151.8L296.6,152.2L296.7,153.9L296.1,155.2L294.5,156.7L293.3,159.3L292.4,160.7L291.3,162.2L291.3,163.2L290.8,163.8L289.8,164.6L289.3,164.7L288.9,166.4L289.1,169.3L289.2,171.1L288.7,173.2L288.7,177.0L288.2,177.1L287.7,178.8L288.0,179.5L287.0,180.1L286.6,181.7L286.2,182.3L285.1,180.2L284.6,177.1L284.2,174.9L283.8,173.8L283.2,171.7L282.9,168.9L282.7,167.5L281.7,164.5L281.2,160.2L280.9,157.3L280.9,154.6L280.7,152.5L279.1,153.9L278.3,153.6L276.9,150.9L277.4,150.1L277.1,149.2L275.8,147.4L274.9,146.8L274.6,145.2L273.7,143.5L271.7,143.9L269.9,144.0L268.3,144.3L266.2,143.6L265.0,143.1L263.8,142.8L263.3,140.1L262.8,139.7L261.9,140.1L260.8,141.2L259.4,140.4L258.3,138.7L257.2,138.1L256.5,136.0L255.7,133.0L255.1,133.4L254.4,132.6L254.0,133.5L253.3,133.4L253.5,134.4L253.4,134.9L253.8,136.6L254.2,138.5L254.8,139.0L255.0,139.8L255.7,140.7L255.8,141.6L255.7,142.3L255.8,143.1L256.1,143.7L256.3,144.4L256.5,145.0L256.4,143.4L256.7,142.2L257.0,142.0L257.3,142.7L257.3,144.0L257.1,145.3L257.3,146.1L257.5,146.0L257.6,146.6L258.4,146.3L259.3,146.3L260.0,146.4L260.8,144.9L261.6,143.5L262.3,142.1L262.6,141.3L262.8,141.5L262.7,142.5L262.5,142.9L262.7,144.6L263.2,146.1L263.8,146.9L264.6,147.2L265.3,147.6L265.8,148.9L266.1,149.6L266.5,149.9L266.5,150.4L266.0,151.7L265.9,152.4L265.4,153.1L265.0,154.6L264.5,154.5L264.3,155.0L264.1,156.1L264.2,157.6L264.1,157.9L263.6,157.9L262.9,158.7L262.8,159.8L262.5,160.3L261.8,160.3L261.4,160.8L261.4,161.7L260.9,162.3L260.3,162.1L259.5,162.9L259.0,163.0L258.2,163.6L258.0,164.6L258.0,165.3L256.9,166.3L255.1,167.3L254.1,168.9L253.6,169.0L253.3,168.9L252.6,169.8L251.9,170.2L251.0,170.3L250.7,170.5L250.5,171.1L250.2,171.2L250.0,171.8L249.4,171.7L249.1,172.0L248.3,171.9L248.0,170.6L248.1,169.4L247.9,168.8L247.7,167.1L247.3,166.2L247.6,166.1L247.4,165.1L247.6,164.6L247.5,163.7L247.4,162.7L247.1,162.1L247.0,161.2L246.4,160.4L245.8,158.5L245.5,156.7L244.7,155.2L244.2,154.8L243.5,152.7L243.4,151.1L243.4,149.8L242.8,147.4L242.3,146.5L241.7,146.0L241.3,144.8L241.3,144.3L241.0,143.1L240.7,142.6L240.3,141.0L239.6,139.2L239.0,137.6L238.5,137.6L238.7,136.4L238.7,135.7L238.8,134.8L238.8,134.4L238.5,135.3L238.3,137.0L238.0,138.2L237.7,138.6L237.3,137.8L236.8,136.9L236.0,133.7L235.9,133.9L236.4,136.2L237.1,138.4L237.9,141.9L238.3,143.1L238.7,144.4L239.7,146.8L239.4,147.2L239.5,148.7L240.8,150.7L241.0,151.1L241.3,153.3L241.1,153.7L241.2,156.0L241.6,158.6L242.1,159.2L242.7,160.0L243.3,162.6L243.6,164.6L244.2,165.7L245.8,167.8L246.4,169.1L247.0,170.3L247.3,171.1L247.9,171.8L248.1,172.5L248.1,173.4L247.5,173.9L247.9,174.5L248.3,174.9L248.5,175.9L249.0,176.8L249.6,176.8L250.6,176.2L251.8,176.0L252.8,175.3L253.4,175.1L253.8,174.7L254.4,174.6L254.7,174.6L255.3,174.3L255.8,174.0L256.4,173.3L256.8,173.3L256.8,173.9L256.7,175.2L256.7,176.4L256.5,177.2L256.2,179.6L255.6,182.0L254.9,184.9L254.0,188.1L253.0,190.6L251.7,193.7L250.6,195.5L249.0,197.7L247.9,199.4L246.7,202.0L246.5,203.2L246.2,203.7L245.4,204.6L245.2,205.6L244.7,205.7L244.6,207.3L244.2,208.2L244.0,209.7L243.6,210.4L243.0,213.1L243.1,214.4L243.8,215.2L243.9,215.8L243.6,217.1L243.6,217.8L243.5,218.9L243.9,220.2L244.4,222.4L244.8,222.9L245.0,223.9L244.9,226.1L245.1,228.1L245.1,231.6L245.3,232.7L245.0,234.2L244.5,235.8L243.8,237.2L242.8,238.0L241.6,239.1L240.3,241.5L239.9,241.9L239.1,243.5L238.7,244.0L238.6,245.5L239.1,247.2L239.3,248.5L239.3,249.2L239.5,249.1L239.5,251.3L239.3,252.3L239.6,252.7L239.4,253.6L238.9,254.4L238.0,255.1L236.7,256.3L236.2,257.2L236.3,258.1L236.6,258.3L236.5,259.4L236.2,261.0L236.1,262.9L235.8,263.9L235.0,265.0L234.8,265.3L234.3,266.5L234.0,267.6L233.4,269.2L232.1,271.5L231.4,272.8L230.5,273.8L229.4,274.7L228.8,274.8L228.6,275.4L228.0,275.1L227.4,275.5L226.2,275.1L225.5,275.4L225.1,275.3L223.9,276.1L223.0,276.5L222.3,277.3L221.8,277.4L221.3,276.6L221.0,276.5L220.5,275.6L220.4,275.9L220.3,275.3L220.3,274.0L219.9,272.5L220.3,272.1L220.2,270.4L219.5,268.3L219.0,266.4L219.0,266.4L218.2,263.5L217.3,261.8L216.9,260.2L216.7,258.0L216.4,256.4L216.0,253.0L216.0,250.3L215.8,249.1L215.4,248.2L214.8,246.4L214.3,243.7L214.0,242.3L213.1,240.2L213.0,238.4L212.9,237.1L213.1,235.1L213.5,233.1L213.5,232.1L213.9,230.1L214.2,229.2L214.8,227.7L215.2,226.8L215.3,225.1L215.2,223.8L214.9,223.1L214.6,221.7L214.3,220.4L214.4,219.9L214.7,219.0L214.4,216.9L214.1,215.4L213.6,214.0L213.7,213.6L213.5,212.9L213.2,211.2L212.3,208.8L211.2,206.6L210.5,204.8L209.8,202.5L209.8,201.7L210.1,201.0L210.3,199.4L210.5,197.8L210.3,197.4L210.7,194.9L210.9,193.2L210.5,191.7L209.9,191.3L209.7,190.3L209.4,190.0L209.4,189.4L208.3,190.2L207.9,190.1L207.4,190.6L206.6,190.5L206.0,189.1L205.6,187.5L204.8,186.1L204.0,186.1L203.0,186.1L202.1,186.3L201.2,186.8L199.4,188.1L198.8,188.9L197.8,189.5L196.8,188.9L196.3,188.9L195.5,188.5L194.8,188.5L193.5,188.9L192.7,189.5L191.6,190.4L191.4,190.3L191.1,190.3L190.0,189.3L189.0,187.6L188.0,186.4L187.3,184.9L187.0,184.8L186.2,183.9L185.6,182.7L185.4,181.9L185.3,180.2L184.8,178.9L184.4,178.0L184.1,177.7L183.8,177.3L183.7,176.3L183.5,175.8L183.2,175.5L182.6,174.5L182.1,174.4L181.9,173.8L181.9,173.4L181.5,173.0L181.5,172.5L181.3,170.8L181.4,169.8L181.0,168.1L180.4,167.3L180.9,166.8L181.4,165.3L181.7,164.1L181.6,162.9L181.9,161.9L182.1,159.8L181.9,157.6L181.8,156.5L181.9,155.3L181.6,154.3L181.0,153.3L181.1,152.4L181.1,151.4L181.6,150.8L181.9,149.6L181.9,148.8L182.2,147.3L182.9,145.9L183.2,145.5L183.5,144.2L183.6,143.0L184.0,141.7L184.7,140.8L185.4,138.6L186.0,137.7L187.0,137.4L187.9,135.9L188.4,135.3L189.4,133.5L189.1,130.7L189.5,128.8L189.7,127.6L190.4,126.1L191.5,125.1L192.3,124.2L193.1,121.9L193.4,120.5L194.2,120.5L194.9,121.5L196.0,121.3L197.1,121.8L197.6,121.8L198.7,120.6L199.9,120.2L200.6,119.3L201.6,118.7L203.5,118.3L205.4,118.1L205.9,118.4L207.0,117.5L208.1,117.5L208.6,118.0L209.4,117.9L210.6,117.0L211.3,117.3L211.3,118.4L212.3,117.6L212.3,118.0L211.8,119.1L211.8,120.1L212.2,120.7L212.0,122.6L211.3,123.7L211.5,124.9L212.1,125.0L212.3,126.0L212.8,126.4L214.1,127.1L214.5,126.9L215.5,127.3L216.9,128.3L217.5,130.3L218.5,130.7L220.0,131.6L221.2,132.7L221.8,132.2L222.3,131.1L222.0,129.4L222.4,128.4L223.2,127.3L223.9,127.0L225.4,127.5L225.8,128.5L226.2,128.5L226.6,128.9L227.7,129.1L228.0,129.8L229.4,129.8L230.5,130.4L231.6,131.1L232.1,131.4L233.0,130.7L233.4,130.1L234.4,129.9L235.2,130.2L235.5,131.3L235.8,130.5L236.7,131.1L237.5,131.2L238.1,130.6L238.4,129.9L238.3,129.8L238.6,128.7L238.8,127.0L239.0,126.5L239.0,126.5L239.4,124.7L240.0,123.1L240.0,123.0L239.9,121.3L240.2,120.4L239.8,119.4L240.2,118.6L239.5,118.7L238.6,118.2L237.8,119.5L236.1,119.8L235.2,118.6L234.0,118.5L233.8,119.4L233.0,119.7L231.9,118.5L230.7,118.5L230.1,116.3L229.2,115.1L229.8,113.4L229.1,112.3L230.3,110.2L232.0,110.1L232.5,108.4L234.6,108.7L235.9,107.3L237.2,106.6L239.1,106.6L241.0,108.1L242.6,109.0L243.9,108.7L244.9,108.9L246.2,107.7L246.3,106.8L246.1,105.2L245.4,104.4L244.8,104.2L244.4,103.5L243.0,101.6L241.7,100.8L240.8,99.5L241.6,99.1L242.5,97.2L241.9,96.4L243.5,95.5L243.5,95.0L242.5,95.3L241.6,95.5L240.8,96.2L239.8,96.3L238.8,97.2L238.9,98.6L239.5,99.1L240.6,99.0L240.4,99.7L239.2,100.1L237.6,101.4L237.0,101.0L237.3,99.9L236.1,99.3L236.3,98.8L237.3,98.1L237.0,97.6L235.3,97.0L235.2,96.2L234.2,96.5L233.8,97.7L232.9,99.3L232.9,99.9L232.4,100.4L232.0,100.2L231.7,102.9L231.2,103.8L230.8,105.4L231.1,106.6L231.2,107.5L232.2,108.2L232.0,108.8L230.7,108.9L230.2,109.6L229.3,110.8L228.9,109.7L229.0,109.3L228.3,109.2L227.7,109.0L226.4,109.6L227.1,110.8L226.6,111.2L225.9,111.2L225.4,110.1L225.1,110.5L225.4,111.9L225.9,112.9L225.5,113.4L226.1,114.4L226.7,115.1L226.7,116.3L225.7,115.7L226.0,116.9L225.3,117.1L225.7,119.1L225.0,119.1L224.1,118.1L223.7,116.3L223.5,114.9L223.0,113.8L222.5,112.6L222.4,111.9L222.2,111.8L222.2,111.3L221.6,110.6L221.5,109.5L221.6,108.0L221.7,107.3L221.5,106.9L221.3,106.8L221.0,106.0L220.5,105.6L219.5,104.8L218.8,104.0L217.8,103.3L216.9,101.7L217.1,101.5L216.6,100.6L216.6,99.8L215.8,99.5L215.5,100.4L215.2,99.7L215.2,98.9L215.2,98.9L215.5,98.7L214.6,98.4L213.7,99.2L213.8,100.3L213.6,100.9L214.0,102.0L215.0,103.1L215.6,105.0L216.8,106.8L217.7,106.8L218.0,107.2L217.7,107.7L218.7,108.5L219.5,109.2L220.4,110.3L220.5,110.7L220.3,111.5L219.7,110.5L218.7,110.1L218.3,111.6L219.1,112.4L218.9,113.6L218.5,113.7L217.9,115.6L217.4,115.8L217.4,115.1L217.7,113.9L217.9,113.4L217.5,112.1L217.1,111.0L216.7,110.7L216.3,109.8L215.6,109.4L215.1,108.5L214.3,108.3L213.5,107.3L212.4,105.9L211.7,104.6L211.3,102.4L210.8,102.1L209.9,101.4L209.4,101.7L208.7,102.7L208.3,102.9L207.3,104.2L205.1,103.6L203.4,104.3L203.3,105.6L203.4,106.9L202.3,108.4L200.9,108.9L200.8,109.6L200.1,110.8L199.7,112.6L200.1,113.9L199.5,114.9L199.2,116.3L198.4,116.8L197.6,118.5L196.2,118.5L195.1,118.5L194.4,119.3L194.0,120.1L193.5,119.9L193.1,119.2L192.8,117.9L191.7,117.6L191.3,118.1L190.7,117.8L190.1,118.1L190.3,116.3L190.2,115.0L189.7,114.8L189.4,113.9L189.5,112.5L189.9,111.7L190.0,110.8L190.3,109.4L190.2,108.5L190.0,107.7L190.0,106.9L190.0,105.4L189.6,104.4L191.1,102.8L192.5,103.2L194.0,103.2L195.2,103.5L196.1,103.4L197.9,103.5L198.5,102.2L198.7,97.7L197.5,95.4L196.7,94.3L195.0,93.4L194.9,91.8L196.3,91.3L198.2,91.9L197.8,89.4L198.9,90.3L201.5,88.6L201.8,86.8L202.8,86.3L203.7,85.9L204.3,85.3L205.2,82.0L206.8,81.1L207.7,81.2L207.9,80.7L208.8,80.6L209.0,81.0L209.8,80.0L209.5,79.1L209.5,77.9L209.0,76.6L209.0,74.4L209.2,73.8L209.5,73.1L210.5,73.0L210.9,72.3L211.8,71.7L211.7,72.9L211.4,73.6L211.5,74.2L212.1,74.5L211.9,75.4L211.5,75.1L210.7,76.7L211.0,77.8L211.0,78.7L212.2,79.2L212.2,80.0L213.3,79.6L213.9,79.0L215.2,79.8L215.7,80.5L216.4,79.9L218.2,78.9L219.6,78.1L220.7,78.5L220.8,79.0L221.8,79.1L222.1,78.1L223.6,77.4L223.4,75.5L223.4,73.8L224.0,72.4L225.0,71.7L225.9,73.3L226.8,73.3L227.0,71.6L227.1,70.3L226.7,70.5L226.0,69.8L225.9,68.5L227.3,67.9L228.7,67.5L229.9,67.9L231.1,67.8L232.4,66.6L231.2,65.5L229.2,65.7L227.2,66.5L225.4,67.0L224.8,65.8L223.7,65.1L223.9,62.9L223.4,60.9L223.9,59.6L224.9,58.2L227.5,55.8L228.2,55.3L228.1,54.4L226.6,53.3L224.6,53.9L223.6,55.5L223.7,56.9L222.0,58.6L219.8,60.6L219.0,63.7L219.8,65.3L220.9,66.5L219.9,69.0L218.7,69.5L218.3,73.2L217.6,75.3L216.3,75.1L215.7,76.9L214.4,77.0L214.0,74.9L213.1,72.3L212.3,69.2L211.5,67.8L209.3,70.4L207.8,70.9L206.3,69.8L205.9,67.4L205.5,62.3L206.6,60.9L209.5,59.0L211.7,56.7L213.7,53.6L216.4,49.3L218.3,47.6L221.3,44.9L223.8,43.9L225.6,44.0L227.3,42.2L229.3,42.3L231.3,41.8L234.8,43.4L233.3,44.0L234.6,45.4L235.7,44.7L237.5,46.0L240.6,46.5L244.8,49.0L245.6,50.1L245.7,51.6L244.5,52.7L242.6,53.3L237.7,51.6L236.9,51.9L238.7,53.6L238.8,56.9L240.3,57.5L241.1,58.1L241.3,57.0L240.6,56.0L241.3,55.2L244.0,56.6L244.9,56.1L244.2,54.4L246.8,52.3L247.8,52.4L248.8,53.2L249.5,51.7L248.6,50.3L249.1,49.0L248.3,47.6L251.4,48.3L252.0,49.6L250.6,49.9L250.6,51.1L251.5,51.9L253.2,51.4L253.5,50.0L255.8,48.9L259.7,47.0L260.5,47.1L259.4,48.4L260.8,48.7L261.6,47.9L263.7,47.9L265.3,46.9L266.6,48.3L267.9,46.8L266.7,45.5L267.3,44.8L270.6,45.4L272.1,46.1L276.1,48.7L276.9,47.5L275.7,46.3L275.7,45.9L274.4,45.7L274.7,44.6L274.1,42.9L274.1,42.2L276.2,40.1L276.9,38.1L277.7,37.7L280.7,38.3L280.9,39.5L279.8,41.3L280.5,42.0L280.9,43.6L280.6,46.6L281.9,48.0L281.4,49.5L279.2,52.6L280.5,52.9L280.9,52.1L282.1,51.6L282.4,50.5L283.4,49.4L282.7,48.2L283.3,46.7L282.0,46.5L281.8,45.3L282.7,43.0L281.2,41.2L283.2,39.7L283.0,38.1L283.5,38.1L284.1,39.3L283.7,41.5L284.8,41.9L284.3,40.3L286.2,39.4L288.5,39.3L290.6,40.6L289.6,38.7L289.5,36.3L291.4,35.9L294.1,36.0L296.5,35.7L295.6,34.5L296.9,33.1L298.1,33.0L300.3,31.9L303.2,31.6L303.6,31.0L306.5,30.8L307.4,31.3L309.9,30.1L312.0,30.2L312.3,29.2L313.3,28.2L315.9,27.3L317.9,28.1L316.3,28.6L318.9,28.9L319.2,30.0L320.2,29.5L323.4,29.5L325.9,30.6L326.8,31.4L326.5,32.6L325.3,33.3L322.4,34.5L321.6,35.2L322.9,35.5L324.6,36.0L325.6,35.6L326.1,37.0L326.6,36.5L328.4,36.1L332.0,36.5L332.2,37.5L336.9,37.8L337.0,36.1L339.3,36.5L341.1,36.5L342.9,37.7L343.4,39.1L342.7,40.0L344.1,41.8L345.9,42.7L346.9,40.4L348.7,41.4L350.6,40.8L352.8,41.5L353.6,40.8L355.4,41.1L354.6,39.1L356.1,38.1L366.1,39.6L367.1,40.9L370.0,42.6L374.5,42.2L376.7,42.5L377.6,43.4L377.5,45.1L378.8,45.7L380.3,45.2L382.3,45.2L384.4,45.6L386.5,45.4L388.4,47.3L389.8,46.6L388.9,45.2L389.4,44.2L392.9,44.9L395.2,44.7L398.4,45.8L0.0,46.7Z M254.6,108.3L255.1,109.8L255.7,109.9L256.0,110.5L255.1,110.7L254.9,112.4L254.7,113.2L254.3,113.7L254.3,114.8L254.7,116.5L255.7,116.9L256.5,118.1L258.1,118.4L259.8,117.9L259.9,117.3L259.7,115.8L259.9,113.4L259.0,112.7L259.3,111.2L258.6,111.0L258.8,109.2L259.8,109.7L260.8,109.0L260.0,107.7L259.7,106.4L258.8,107.0L258.7,108.6L258.3,107.1L258.3,106.6L258.5,105.7L258.3,104.9L257.0,104.1L256.5,102.2L255.9,101.6L255.9,100.9L257.0,101.1L257.0,99.5L258.0,99.1L258.9,99.4L259.1,97.3L258.9,95.9L257.8,96.0L256.9,95.4L255.6,96.4L254.6,96.9L254.1,98.2L253.0,98.6L251.9,100.9L252.9,103.0L252.8,104.5L254.0,107.1L254.6,108.3Z M93.7,46.4L93.0,47.2L91.5,46.5L90.6,46.8L89.1,45.8L90.1,45.1L90.9,44.1L92.0,44.8L92.7,45.2L93.0,45.6L93.7,46.4Z M0.0,41.1L400.0,42.6L398.8,42.7L398.6,42.0L0.0,41.1Z M0.0,41.1L0.1,41.0L1.1,41.0L2.7,41.6L2.6,41.9L1.5,42.5L0.0,42.6L0.0,41.1Z M99.4,45.6L99.4,47.8L100.9,46.1L102.2,47.5L101.9,49.2L102.9,50.7L104.1,49.1L104.9,47.1L105.0,44.7L106.6,44.9L108.2,45.2L109.7,46.3L109.8,47.4L108.9,48.6L109.7,49.8L109.6,50.9L107.4,52.4L105.8,52.8L104.7,52.1L104.4,53.2L103.3,55.1L103.0,56.1L101.7,57.6L100.1,57.7L99.2,58.6L99.1,60.1L97.9,60.4L96.5,62.2L95.3,64.7L94.9,66.4L94.8,69.0L96.4,69.4L96.9,71.5L97.4,73.1L99.0,72.7L101.1,73.7L102.2,74.5L103.0,75.6L104.4,76.2L105.5,77.1L107.4,77.2L108.6,77.4L108.4,79.4L108.7,81.6L109.6,84.1L111.2,86.2L112.1,85.5L112.7,83.2L112.1,79.7L111.3,78.5L113.1,77.5L114.3,75.9L115.0,74.4L114.9,72.9L114.1,71.0L112.8,69.3L114.1,67.0L113.6,65.0L113.2,61.5L114.0,61.0L115.9,61.6L117.0,61.8L118.0,61.2L119.0,62.0L120.4,63.3L120.7,64.1L122.7,64.3L122.6,66.2L123.0,69.0L124.0,69.3L124.8,70.6L126.4,69.4L127.5,67.0L128.2,65.9L129.1,67.9L130.6,70.7L131.8,73.4L131.3,74.8L132.8,76.1L133.8,77.3L135.6,77.9L136.3,78.6L136.7,80.5L137.6,80.8L138.0,81.6L138.1,84.1L137.3,85.0L136.5,85.7L134.7,86.5L133.3,88.4L131.4,88.7L129.0,88.2L127.4,88.2L126.2,88.4L125.3,90.0L123.9,91.0L122.3,93.9L121.0,96.0L121.9,95.6L123.7,92.7L126.1,90.8L127.7,90.6L128.7,91.7L127.6,93.2L128.0,95.6L128.4,97.2L129.8,98.4L131.6,98.0L132.8,95.5L132.8,97.2L133.6,98.0L132.2,99.4L129.7,100.7L128.6,101.6L127.4,103.2L126.5,103.1L126.5,101.2L128.4,99.4L126.6,99.4L125.4,99.7L125.6,100.4L124.4,101.5L123.3,102.3L122.1,102.9L121.5,104.4L121.3,104.7L121.3,105.9L121.7,107.1L122.1,107.2L122.0,106.3L122.3,106.8L122.3,107.5L121.5,107.8L121.0,107.8L120.2,108.2L119.7,108.3L119.0,108.4L118.1,109.0L119.7,108.6L120.1,109.0L118.5,109.7L117.8,109.7L117.8,109.4L117.5,110.1L117.8,110.2L117.6,111.8L116.8,113.5L116.7,112.9L116.4,112.8L116.1,112.2L116.3,113.4L116.6,113.8L116.6,114.7L116.2,115.5L115.6,117.3L115.5,117.2L115.9,115.7L115.3,114.8L115.2,113.0L115.0,114.0L115.2,115.4L114.5,115.0L115.2,115.7L115.3,117.9L115.6,118.0L115.7,118.8L115.9,121.0L115.2,122.6L114.0,123.3L113.3,124.6L112.7,124.8L112.2,125.6L112.0,126.3L110.8,127.8L110.1,128.8L109.6,130.1L109.5,131.7L109.7,133.3L110.0,135.2L110.5,136.7L110.5,137.7L111.0,140.3L111.0,141.8L111.0,142.6L110.7,144.0L110.4,144.3L109.8,144.0L109.6,143.0L109.2,142.5L108.6,140.6L108.1,138.9L107.9,138.0L108.2,136.6L107.9,135.3L107.0,133.5L106.6,133.1L105.4,134.1L105.2,134.0L104.7,133.0L104.0,132.4L102.7,132.7L101.8,132.5L100.9,132.6L100.4,132.9L100.7,133.6L100.6,134.5L100.9,134.9L100.7,135.2L100.2,134.9L99.8,135.3L99.0,135.2L98.2,134.0L97.2,134.3L96.4,133.8L95.7,134.0L94.8,134.5L93.8,136.1L92.7,137.1L92.1,138.2L91.8,139.2L91.8,140.7L91.9,141.8L92.1,142.5L92.1,142.5L92.1,142.5L91.6,144.5L91.4,146.1L91.4,149.0L91.3,150.1L91.4,151.3L91.8,152.4L92.0,154.1L92.7,155.8L93.0,157.1L93.4,158.2L94.6,158.7L95.1,159.7L96.1,159.1L96.9,158.8L97.7,158.4L98.4,158.1L99.1,157.1L99.4,155.8L99.5,154.0L99.7,153.3L100.4,152.8L101.6,152.2L102.6,152.3L103.3,152.1L103.5,152.6L103.5,153.7L102.9,155.0L102.6,156.3L102.8,156.7L102.7,157.7L102.4,159.4L102.1,158.9L101.9,158.9L101.9,159.2L102.1,159.2L102.1,159.8L101.9,160.8L102.0,161.1L101.9,161.9L102.0,162.1L101.8,163.3L101.6,163.9L101.4,163.9L101.2,164.7L101.5,165.1L101.6,164.8L102.0,165.0L102.1,165.1L102.3,164.7L102.6,164.7L102.8,164.9L102.9,164.8L103.4,165.0L104.0,164.9L104.3,164.7L104.4,164.4L104.8,164.5L105.1,164.7L105.4,164.6L105.6,164.5L106.1,164.8L106.3,164.8L106.6,165.2L106.9,165.7L107.3,166.1L107.6,166.7L107.5,166.9L107.5,167.4L107.6,168.2L107.3,169.0L107.2,169.8L107.2,170.8L107.2,171.4L107.3,172.4L107.1,172.6L107.0,173.6L107.1,174.2L106.8,174.7L106.9,175.3L107.0,175.7L107.3,176.9L107.8,177.8L108.3,178.7L108.7,179.5L108.7,180.0L109.1,180.1L109.2,179.9L109.5,180.5L110.1,180.3L110.5,179.8L111.2,179.3L111.6,178.6L112.2,178.8L112.2,179.0L112.8,179.1L113.3,179.5L113.6,180.1L114.1,180.7L114.6,180.8L115.5,179.3L115.9,179.0L115.9,178.3L116.1,176.4L116.8,175.4L117.5,175.3L117.6,174.9L118.4,175.1L119.3,173.9L119.7,173.4L120.3,172.4L120.7,172.5L121.0,173.1L120.7,173.8L120.7,174.4L120.1,174.6L120.4,175.6L120.4,176.8L119.9,178.1L120.3,179.8L120.8,179.7L121.1,178.1L120.7,177.3L120.7,175.6L122.0,174.7L121.9,173.7L122.3,173.0L122.7,174.5L123.5,174.6L124.2,175.8L124.2,176.5L125.2,176.6L126.4,176.3L127.0,177.3L127.9,177.6L128.5,176.9L128.5,176.4L129.9,176.2L131.2,176.2L130.3,176.8L130.7,177.9L131.6,178.1L132.4,179.2L132.6,180.9L133.2,180.9L133.6,181.4L134.3,182.2L135.0,183.7L135.0,184.8L135.5,184.9L136.1,186.0L136.5,186.7L137.8,187.2L138.0,186.8L138.9,186.6L140.0,187.2L140.4,187.5L141.2,188.0L142.4,189.9L142.6,190.8L143.0,190.7L143.3,191.9L143.9,195.8L144.5,196.1L144.5,197.7L143.7,199.5L144.0,200.2L146.0,200.5L146.0,202.8L146.9,201.3L148.3,202.1L150.1,203.4L150.6,204.7L150.5,206.0L151.8,205.3L153.9,206.5L155.6,206.4L157.2,208.2L158.6,210.7L159.5,211.4L160.4,211.4L160.8,212.1L161.2,215.0L161.4,216.3L161.0,220.0L160.4,221.4L158.8,224.5L158.1,227.0L157.3,229.0L157.0,229.0L156.7,230.7L156.8,234.8L156.5,238.2L156.4,239.7L156.0,240.6L155.8,243.6L154.7,246.5L154.5,248.7L153.6,249.7L153.3,251.0L152.1,251.0L150.4,251.9L149.6,252.9L148.4,253.5L147.1,255.3L146.1,257.5L146.0,259.2L146.1,260.4L145.9,262.6L145.7,263.7L144.9,264.9L143.7,268.9L142.7,270.6L141.9,271.7L141.4,273.8L140.7,275.0L140.2,276.4L139.0,277.7L138.1,277.2L137.5,277.5L136.5,276.5L135.8,276.6L135.1,275.4L135.0,276.5L136.4,278.4L136.3,280.0L137.0,280.9L136.9,282.0L135.8,284.9L134.2,286.0L132.0,286.5L130.7,286.3L131.0,287.6L130.7,289.3L130.9,290.4L130.3,291.2L129.1,291.5L128.1,290.7L127.6,291.3L127.8,293.5L128.6,294.1L129.2,293.4L129.5,294.6L128.5,295.3L127.6,296.7L127.4,298.9L127.1,300.1L126.1,300.1L125.2,301.2L124.9,302.9L126.0,304.5L127.1,305.0L126.7,307.0L125.4,308.2L124.6,310.8L123.6,311.7L123.2,312.7L123.5,315.0L124.3,316.3L123.8,316.2L122.8,316.2L122.3,316.8L121.3,317.6L121.1,319.6L120.6,319.7L119.4,319.0L118.1,317.4L116.7,316.1L116.4,314.7L116.7,313.4L116.1,312.0L116.0,308.2L116.5,306.0L117.6,304.3L115.9,303.7L117.0,301.7L117.4,298.0L118.6,298.8L119.2,294.2L118.5,293.6L118.1,296.4L117.4,296.1L117.8,292.9L118.1,288.8L118.6,287.2L118.3,285.1L118.2,282.6L118.7,282.5L119.4,278.9L120.2,275.4L120.6,272.0L120.4,268.7L120.7,266.9L120.6,264.1L121.2,261.4L121.4,257.1L121.8,252.5L122.1,247.5L122.0,243.9L121.8,240.8L120.7,239.5L120.6,238.6L118.4,236.4L116.4,233.9L115.5,232.6L115.1,230.7L115.3,230.1L114.3,227.2L113.2,223.1L112.2,218.6L111.7,217.6L111.4,216.0L110.5,214.5L109.7,213.6L110.1,212.6L109.5,210.5L109.9,209.0L110.8,207.6L111.4,205.9L111.1,204.9L110.7,206.0L110.0,205.0L110.3,204.4L110.1,202.3L110.5,202.0L110.7,200.6L111.1,199.2L111.0,198.3L111.6,197.8L112.4,196.9L112.2,196.2L112.6,196.1L112.6,195.0L112.9,194.2L113.4,194.0L113.9,192.6L114.3,191.4L113.9,190.9L114.1,189.6L113.9,187.6L114.1,187.0L113.9,185.1L113.5,183.9L113.1,183.3L112.9,182.1L113.1,181.5L112.8,181.4L112.6,180.6L112.1,180.0L111.6,180.2L111.4,180.9L110.9,181.5L110.7,181.6L110.6,182.0L111.1,183.2L110.8,183.5L110.6,183.8L110.1,184.0L109.9,182.6L109.8,183.0L109.4,182.9L109.2,182.0L108.7,181.8L108.5,181.6L108.0,181.6L107.9,182.1L107.8,181.7L107.2,181.2L107.0,180.8L107.1,180.4L107.1,179.9L106.8,179.4L106.3,178.9L105.9,178.6L105.9,178.0L105.6,177.6L105.7,178.2L105.4,178.8L105.2,178.1L104.8,177.9L104.7,177.5L104.7,176.8L104.8,176.1L104.5,175.8L104.8,175.4L104.4,174.7L103.9,173.8L103.6,173.0L103.1,172.3L102.6,171.3L102.7,171.0L102.9,171.3L103.0,171.1L102.8,170.5L102.5,170.3L102.3,170.8L101.7,170.7L101.3,170.5L100.8,170.1L100.2,170.0L99.9,169.5L99.3,169.1L98.6,169.0L98.1,168.6L97.5,167.7L96.3,165.3L95.7,164.6L94.8,164.0L94.2,164.2L93.3,165.0L92.7,165.2L91.9,164.6L91.1,164.2L90.1,163.2L89.2,162.9L88.0,161.8L87.0,160.8L86.8,160.2L86.1,160.1L85.0,159.4L84.5,158.3L83.3,157.1L82.8,155.7L82.5,154.6L82.9,154.4L82.8,153.7L83.0,153.2L83.0,152.4L82.7,151.4L82.6,150.5L82.2,149.4L81.2,147.2L80.1,145.4L79.6,144.1L78.6,143.2L78.4,142.6L78.6,141.2L78.0,140.7L77.3,139.6L77.1,138.1L76.5,137.9L75.8,136.7L75.3,135.7L75.3,135.0L74.7,133.3L74.3,131.6L74.3,130.7L73.5,129.8L73.1,129.9L72.5,129.3L72.3,130.2L72.5,131.3L72.6,133.0L73.0,133.9L73.8,135.4L74.0,135.9L74.1,136.1L74.3,136.9L74.5,136.8L74.7,138.3L75.0,138.8L75.3,139.6L76.0,140.7L76.3,142.8L76.7,143.8L77.0,144.8L77.0,146.0L77.6,146.1L78.0,147.1L78.4,148.1L78.4,148.5L77.9,149.3L77.7,149.3L77.4,147.9L76.7,146.7L75.9,145.6L75.4,145.0L75.4,143.4L75.2,142.2L74.7,141.5L73.9,140.5L73.8,140.8L73.5,140.2L72.8,139.7L72.2,138.4L72.2,138.2L72.7,138.4L73.1,137.5L73.2,136.5L72.3,134.9L71.6,134.3L71.2,132.9L70.8,131.5L70.3,129.7L69.9,127.7L69.7,126.6L69.0,125.3L68.4,125.0L68.3,124.4L67.7,124.3L67.3,123.7L66.3,123.4L66.0,123.1L65.8,121.9L64.8,119.6L63.8,116.6L63.9,116.0L63.4,115.3L62.5,113.4L62.4,111.6L61.8,110.4L62.0,108.6L62.0,106.7L61.6,105.0L62.1,102.9L62.3,98.8L62.1,95.9L61.8,94.0L61.5,92.9L61.6,92.5L63.2,93.2L63.8,95.3L64.1,94.8L63.9,92.9L63.5,91.1L63.4,91.1L61.2,88.9L60.4,88.0L58.4,87.0L57.8,85.1L57.9,83.7L56.5,82.8L56.3,81.0L55.0,79.4L55.0,78.2L54.3,77.4L53.4,76.7L53.1,74.7L51.6,72.9L51.0,70.8L50.0,70.7L48.2,70.6L46.9,70.0L44.6,67.7L43.5,67.3L41.6,66.5L40.0,66.7L37.9,65.6L36.5,64.7L35.3,65.2L35.5,66.7L34.9,66.9L33.6,67.3L32.7,68.1L31.4,68.5L31.3,67.2L31.8,65.1L32.9,64.4L32.6,63.8L31.2,65.0L30.5,66.5L28.9,68.1L29.7,69.2L28.6,70.8L27.4,71.7L26.3,72.4L26.0,73.4L24.3,74.5L24.0,75.6L22.7,76.5L21.9,76.3L20.9,77.0L19.7,77.7L18.8,78.5L16.9,79.1L16.7,78.7L17.9,77.7L19.0,77.0L20.2,75.8L21.6,75.5L22.1,74.6L23.7,73.3L23.9,72.8L24.8,72.1L24.9,70.4L25.5,69.1L24.2,69.7L23.9,69.4L23.3,70.2L22.5,69.0L22.2,69.8L21.8,68.7L20.7,69.6L20.0,69.6L19.9,68.3L20.1,67.5L19.4,66.7L18.0,67.1L17.0,66.1L16.3,65.5L16.3,64.3L15.4,63.3L15.9,62.1L16.8,60.8L17.2,59.7L18.1,59.5L18.8,59.9L19.7,58.8L20.5,59.0L21.4,58.3L21.2,57.3L20.5,56.9L21.4,56.0L20.7,56.1L19.5,56.5L19.2,57.0L18.3,56.5L16.7,56.8L15.1,56.3L14.6,55.4L13.2,54.1L14.8,53.1L17.3,52.1L18.2,52.1L18.0,53.2L20.4,53.1L19.5,51.7L18.1,50.9L17.3,49.7L16.2,48.8L14.7,48.1L15.3,46.9L17.3,46.9L18.7,45.8L19.0,44.8L20.1,43.7L21.2,43.4L23.3,42.5L24.3,42.6L26.0,41.4L27.7,41.9L28.5,42.9L29.0,42.5L30.9,42.6L30.8,43.1L32.5,43.5L33.6,43.3L36.0,44.0L38.1,44.2L39.0,44.5L40.5,44.1L42.1,44.8L43.3,45.1L45.4,45.6L47.2,46.7L48.3,46.9L49.3,46.0L50.6,45.3L52.3,45.5L54.0,44.6L55.8,44.0L56.5,44.9L57.4,44.4L57.6,43.4L58.4,43.6L60.3,45.6L61.7,44.1L61.9,45.8L63.3,45.4L63.7,44.8L65.0,44.9L66.7,45.8L69.3,46.6L70.9,47.0L71.9,46.9L73.4,48.0L71.9,49.1L73.9,49.6L76.9,49.3L77.8,48.9L79.0,50.3L80.2,49.1L79.1,48.2L79.8,47.4L81.2,47.3L82.1,47.1L83.0,47.6L84.1,48.8L85.3,48.7L87.3,49.7L89.0,49.3L90.6,49.4L90.5,48.0L91.5,47.6L93.2,48.4L93.2,50.5L93.9,48.7L94.8,48.7L95.3,46.5L94.1,45.1L92.8,44.2L92.9,41.8L94.2,40.2L95.7,40.5L96.8,41.5L98.3,44.0L97.3,45.1L99.4,45.6Z M73.1,37.5L72.6,38.6L75.1,37.9L76.6,39.0L77.9,37.9L78.9,38.6L79.8,40.8L80.3,39.9L79.6,37.6L80.5,37.3L81.6,37.6L82.9,38.5L83.6,40.7L83.9,42.2L85.8,43.3L87.8,44.4L87.7,45.4L85.9,45.5L86.6,46.4L86.2,47.2L84.2,46.9L82.3,46.3L81.0,46.4L78.9,47.2L75.6,47.5L74.1,47.7L73.5,46.6L72.0,46.0L71.0,46.3L69.6,44.5L70.4,44.3L72.1,43.9L73.6,44.0L75.1,43.6L72.9,43.1L70.6,43.3L69.0,43.2L68.4,42.4L71.0,41.5L69.3,41.6L67.3,41.0L68.3,39.3L69.0,38.4L72.0,37.1L73.1,37.5Z M83.9,36.8L82.9,38.3L81.2,36.8L81.6,36.4L83.0,36.4L83.9,36.8Z M115.2,37.6L115.3,38.2L114.1,38.1L112.9,38.1L111.7,38.4L111.4,38.2L110.1,37.0L110.2,36.2L110.7,36.1L113.3,36.3L115.2,37.6Z M103.8,37.4L104.7,38.8L105.7,37.0L108.5,36.1L110.4,38.4L110.3,39.9L112.5,39.2L113.5,38.3L116.0,39.5L117.5,40.5L117.7,41.5L119.7,41.0L120.9,42.4L123.6,43.3L124.5,44.2L125.6,46.3L123.5,47.3L126.2,48.7L127.9,49.2L129.5,51.3L131.3,51.4L130.9,53.0L129.0,55.6L127.6,54.6L125.9,52.5L124.4,52.7L124.3,54.0L125.5,55.3L127.0,56.3L127.4,56.9L128.1,59.1L127.8,60.7L126.4,60.1L123.6,58.3L125.1,60.3L126.3,61.6L126.5,62.4L123.5,61.5L121.1,60.2L119.7,59.1L120.1,58.5L118.5,57.3L116.8,56.3L116.9,56.9L113.7,57.3L112.7,56.5L113.4,54.9L115.5,54.8L117.8,54.5L117.5,53.8L117.8,52.6L119.3,50.5L119.0,49.5L118.5,48.7L116.8,47.7L114.6,46.9L115.3,46.3L114.1,45.0L113.1,44.8L112.3,44.1L111.7,44.7L109.7,45.0L105.6,44.5L103.3,43.9L101.5,43.5L100.5,42.8L101.7,41.7L100.1,41.7L99.8,39.5L100.6,37.5L101.8,36.6L104.6,36.0L103.8,37.4Z M88.5,35.9L89.8,36.4L91.8,36.1L92.1,36.7L91.1,37.8L92.7,38.8L92.5,40.8L90.7,41.6L89.6,41.4L88.9,40.6L86.1,38.9L86.1,38.2L88.4,38.4L87.2,37.0L88.5,35.9Z M359.6,37.3L357.9,37.3L355.6,37.1L355.4,37.0L356.5,36.1L357.8,35.9L359.4,36.7L359.6,37.3Z M96.4,38.3L95.3,39.9L94.0,39.9L93.3,37.9L93.3,36.8L93.9,35.9L95.0,35.3L97.3,35.3L99.4,35.9L97.8,37.9L96.4,38.3Z M66.2,41.3L63.2,42.4L62.6,41.5L60.1,40.3L60.5,39.6L61.3,37.7L62.3,36.3L61.2,34.9L65.0,34.6L66.5,35.0L69.4,35.1L70.5,35.8L71.7,36.7L70.3,37.3L67.5,38.8L66.2,40.4L66.2,41.3Z M367.5,33.1L366.2,34.0L364.4,33.8L362.4,33.0L362.6,32.2L364.7,32.6L367.5,33.1Z M96.0,33.4L95.4,34.2L93.8,34.1L92.4,33.5L93.0,32.5L94.6,31.9L95.6,32.7L96.0,33.4Z M361.2,32.1L360.3,33.7L356.2,33.7L354.4,34.2L352.2,32.8L352.8,31.2L354.3,30.8L357.2,30.9L361.2,32.1Z M90.6,29.5L91.4,30.5L91.4,31.7L90.9,33.3L89.1,33.6L87.9,33.2L87.9,31.9L86.1,32.1L86.0,30.4L87.2,30.4L88.9,29.7L90.5,29.8L90.6,29.5Z M79.8,30.7L80.2,31.5L81.2,31.1L82.4,31.2L82.5,32.3L81.9,33.3L78.1,33.7L75.3,34.6L73.6,34.7L73.5,34.0L75.8,33.0L70.8,33.2L69.2,32.8L70.7,30.7L71.8,30.0L74.9,30.8L76.9,32.1L78.8,32.3L77.2,30.2L78.2,29.3L79.4,29.6L79.8,30.7Z M263.9,42.8L263.3,43.0L259.6,42.7L259.3,41.8L257.3,41.2L257.2,40.0L258.3,39.5L258.3,38.3L260.5,36.4L259.5,36.1L262.1,34.2L261.8,33.2L264.3,32.0L268.0,30.6L271.7,30.1L273.6,29.3L275.7,29.0L276.5,29.9L275.8,30.6L271.8,31.7L268.4,32.8L265.0,34.9L263.3,37.0L261.6,39.2L261.8,41.0L263.9,42.8Z M94.8,28.7L96.0,29.4L98.2,29.4L99.2,30.1L98.9,30.9L100.2,31.4L100.9,32.0L102.4,32.1L104.0,32.3L105.8,31.8L108.1,31.6L109.9,31.7L111.0,32.6L111.3,33.5L110.6,34.1L108.9,34.6L107.5,34.3L104.3,34.6L102.1,34.7L100.3,34.4L97.3,33.7L96.9,32.5L96.8,31.4L95.7,30.4L93.4,30.1L92.1,29.4L92.5,28.5L94.8,28.7Z M70.9,27.5L70.7,29.2L69.9,29.9L68.8,30.0L66.8,31.0L65.0,31.3L63.5,30.9L65.4,29.2L67.7,27.7L69.4,27.8L70.9,27.5Z M95.7,27.7L95.2,27.8L93.1,27.7L92.8,27.0L95.1,27.1L95.9,27.5L95.7,27.7Z M77.6,27.3L75.5,28.0L73.9,27.3L74.7,26.6L76.4,26.3L77.9,26.7L77.6,27.3Z M227.5,27.0L225.0,27.9L223.0,27.4L223.8,26.8L223.1,26.1L225.4,25.7L225.9,26.5L227.5,27.0Z M78.2,25.3L76.8,25.8L75.0,25.8L75.0,25.4L76.1,24.8L76.7,24.9L78.2,25.3Z M93.5,26.5L91.9,27.0L91.0,26.5L90.5,25.7L90.4,24.7L91.8,24.8L92.5,25.0L93.8,25.7L93.5,26.5Z M88.8,25.9L89.3,26.9L87.4,26.6L85.6,25.9L83.1,25.8L84.2,25.2L82.9,24.6L82.8,23.8L85.0,24.1L88.0,24.9L88.8,25.9Z M316.8,26.0L310.5,26.8L312.5,23.9L313.4,23.7L314.3,23.8L317.1,25.1L316.8,26.0Z M220.3,22.9L223.9,24.5L221.1,25.4L220.5,27.1L219.6,27.5L219.0,29.3L217.7,29.4L215.3,28.0L216.3,27.3L214.6,26.6L212.5,24.7L211.6,23.0L214.6,22.2L215.2,23.0L216.8,22.9L217.2,22.2L218.9,22.1L220.3,22.9Z M228.3,21.3L230.5,22.1L228.8,23.3L225.6,23.6L222.3,23.2L222.1,22.6L220.5,22.5L219.3,21.5L222.7,20.9L224.3,21.4L225.5,20.8L228.3,21.3Z M256.8,21.0L255.3,21.3L254.3,21.5L254.2,21.8L252.9,22.2L251.7,21.7L252.3,21.0L249.8,20.9L252.0,20.5L253.7,20.5L253.9,21.1L254.6,20.5L255.6,20.2L257.2,20.7L256.8,21.0Z M311.0,24.7L308.6,25.0L305.5,24.3L303.7,23.5L302.8,21.9L301.3,21.5L304.2,19.9L306.6,19.4L308.8,20.6L311.3,22.7L311.0,24.7Z M103.3,23.0L104.6,23.7L103.1,24.4L101.1,26.0L99.1,26.2L96.8,25.9L95.6,25.0L95.6,24.2L96.5,23.6L94.5,23.6L93.2,22.9L92.5,21.9L93.3,20.9L94.1,20.2L95.2,20.0L94.7,19.5L97.3,19.4L98.7,20.6L100.6,21.1L102.4,21.5L103.3,23.0Z M123.9,15.3L126.9,15.5L129.2,15.8L131.3,16.4L131.2,17.0L128.5,17.9L125.8,18.4L124.8,18.9L127.2,18.9L124.6,20.2L122.8,20.9L120.9,22.7L118.6,23.0L117.9,23.5L114.5,23.7L116.1,24.0L115.3,24.4L116.2,25.5L115.2,26.3L113.5,26.9L112.9,27.8L111.4,28.4L111.5,28.9L113.4,28.8L113.5,29.4L110.5,30.7L107.6,30.1L104.3,30.4L102.7,30.2L100.6,30.1L100.4,29.0L102.5,28.5L101.9,26.9L102.6,26.7L105.6,27.7L104.1,26.3L102.3,25.8L103.2,25.0L105.1,24.5L105.4,23.7L103.9,22.8L103.4,21.7L106.4,21.8L107.3,22.0L109.1,21.2L106.6,20.9L102.7,21.1L100.7,20.3L99.8,19.4L98.5,18.8L98.2,18.0L99.9,17.6L101.2,17.5L103.4,17.2L105.0,16.3L106.4,16.4L107.6,17.1L108.4,15.9L109.9,15.5L111.9,15.3L115.3,15.2L115.9,15.4L119.1,15.0L121.5,15.2L123.9,15.3Z M169.9,14.4L176.8,16.2L174.8,17.0L170.5,17.1L164.6,17.3L165.1,17.7L169.0,17.5L172.4,18.3L174.6,17.6L175.5,18.4L174.3,19.7L177.1,18.8L182.5,18.0L185.8,18.4L186.4,19.4L181.9,20.9L181.3,21.4L177.7,21.8L180.3,21.9L179.0,23.6L178.1,25.0L178.1,27.5L179.5,28.9L177.7,29.0L175.9,29.7L178.0,30.9L178.2,32.8L177.0,33.0L178.5,34.9L176.0,35.1L177.3,36.0L176.9,36.7L175.4,37.1L173.8,37.1L175.2,38.6L175.2,39.6L173.0,38.7L172.5,39.3L174.0,39.8L175.4,41.2L175.8,43.0L173.8,43.4L173.0,42.5L171.6,41.3L172.0,42.8L170.7,43.9L173.6,44.0L175.2,44.2L172.2,46.1L169.2,47.8L165.9,48.6L164.7,48.6L163.5,49.5L162.0,51.8L159.6,53.4L158.8,53.5L157.4,54.0L155.8,54.5L154.8,55.9L154.8,57.5L154.2,58.9L152.4,60.7L152.9,62.4L152.4,64.3L151.8,66.4L150.2,66.6L148.6,64.8L146.4,64.8L145.3,63.5L144.6,61.4L142.6,58.6L142.1,57.2L141.9,55.2L140.4,53.1L140.8,51.5L140.0,50.7L141.1,48.1L142.8,47.3L143.2,46.3L143.5,44.6L142.2,45.4L141.6,45.7L140.6,46.0L139.2,45.3L139.2,43.8L139.6,42.6L140.6,42.6L142.9,43.2L141.0,41.8L140.0,41.0L138.9,41.3L138.0,40.8L139.2,38.7L138.5,37.9L137.6,36.3L136.3,34.0L134.9,33.1L134.9,32.2L131.9,30.9L129.6,30.7L126.6,30.8L123.9,31.0L122.6,30.3L120.7,28.9L123.6,28.2L125.8,28.1L121.1,27.5L118.6,26.6L118.7,25.7L122.9,24.6L127.0,23.6L127.4,22.8L124.4,22.0L125.4,21.1L129.2,19.5L130.8,19.3L130.4,18.3L133.0,17.7L136.4,17.4L139.8,17.3L141.1,18.0L144.0,16.8L146.7,17.6L148.2,17.8L150.5,18.5L147.9,17.3L148.0,16.4L151.8,15.1L155.7,15.2L157.1,14.3L161.0,14.1L169.9,14.4Z"
        fill="#2b3550" stroke="#3d4f6a" stroke-width="0.5" fill-rule="evenodd"/>

  <!-- graticule — 30° grid -->
  <g stroke="#e8b84b" stroke-width="0.6" fill="none">
    <g opacity="0.14">
      <line x1="33.3"  y1="0" x2="33.3"  y2="400"/>
      <line x1="66.7"  y1="0" x2="66.7"  y2="400"/>
      <line x1="100"   y1="0" x2="100"   y2="400"/>
      <line x1="133.3" y1="0" x2="133.3" y2="400"/>
      <line x1="166.7" y1="0" x2="166.7" y2="400"/>
      <line x1="233.3" y1="0" x2="233.3" y2="400"/>
      <line x1="266.7" y1="0" x2="266.7" y2="400"/>
      <line x1="300"   y1="0" x2="300"   y2="400"/>
      <line x1="333.3" y1="0" x2="333.3" y2="400"/>
      <line x1="366.7" y1="0" x2="366.7" y2="400"/>
      <line x1="0" y1="66.7"  x2="400" y2="66.7"/>
      <line x1="0" y1="133.3" x2="400" y2="133.3"/>
      <line x1="0" y1="266.7" x2="400" y2="266.7"/>
      <line x1="0" y1="333.3" x2="400" y2="333.3"/>
    </g>
    <g opacity="0.28">
      <line x1="0"   y1="200" x2="400" y2="200"/>
      <line x1="200" y1="0"   x2="200" y2="400"/>
    </g>
  </g>

  <!-- bbox tint -->
  <rect x="88" y="118" width="224" height="164" fill="#1b2031" opacity="0.52"/>

  <!-- dashed bounding box -->
  <rect x="88" y="118" width="224" height="164"
        fill="none" stroke="#e8b84b" stroke-width="2.5"
        stroke-dasharray="11 5" stroke-linecap="square"/>

  <!-- corner handles -->
  <rect x="78"  y="108" width="20" height="20" fill="#e8b84b"/>
  <rect x="302" y="108" width="20" height="20" fill="#e8b84b"/>
  <rect x="78"  y="272" width="20" height="20" fill="#e8b84b"/>
  <rect x="302" y="272" width="20" height="20" fill="#e8b84b"/>

  <!-- monogram -->
  <text x="200" y="221"
        font-family="'IBM Plex Mono', ui-monospace, monospace"
        font-size="80" font-weight="600" letter-spacing="-2"
        fill="#e8b84b"
        text-anchor="middle" dominant-baseline="middle">BB</text>
</svg>